<svg width="24" height="24" xmlns="http://www.w3.org/2000/svg" data-name="Layer 1" viewBox="0 0 93 116.25" x="0px" y="0px">
    <defs>
        <style>.cls-1{fill-rule:evenodd;}</style>
    </defs>
    <path class="cls-1"
          d="M80.863,21.446V74.184L47.61,82.913V57.739a8.681,8.681,0,0,0,6.975-5.552,3.77,3.77,0,0,0,2.507-3.542V44.627a2.244,2.244,0,0,1,.975-1.893,20.107,20.107,0,0,0,8.516-16.415c0-.375-.009-.746-.035-1.116l14.315-3.757ZM38.128,46.209v2.436a1.545,1.545,0,0,0,1.541,1.549H53.331a1.552,1.552,0,0,0,1.549-1.549V46.209Zm5.477-17.984H42.281A1.323,1.323,0,1,1,43.605,26.9v1.323ZM47.184,44H45.816V30.438h1.368V44Zm4.858,8.411H40.958a6.406,6.406,0,0,0,11.084,0ZM46.5,8.449A17.871,17.871,0,0,0,36.2,40.927,4.411,4.411,0,0,1,38.085,44h5.52V30.438H42.281A3.536,3.536,0,1,1,45.816,26.9v1.323h1.368V26.9a3.535,3.535,0,1,1,3.535,3.536H49.4V44h5.52A4.411,4.411,0,0,1,56.8,40.927,17.871,17.871,0,0,0,46.5,8.449ZM49.4,28.225h1.324A1.323,1.323,0,1,0,49.4,26.9v1.323ZM12.137,21.446,26.452,25.2c-.026.371-.035.742-.035,1.117a20.131,20.131,0,0,0,8.516,16.415,2.244,2.244,0,0,1,.975,1.893v4.018a3.77,3.77,0,0,0,2.508,3.542,8.678,8.678,0,0,0,6.974,5.552V82.913L12.137,74.184V21.446ZM1.5,26.385,9.926,28.7V75.036a1.1,1.1,0,0,0,.818,1.072l32.173,8.443L1.5,78.991V26.385ZM91.5,78.991V26.385L83.083,28.7V75.036a1.108,1.108,0,0,1-.827,1.072L50.083,84.551Z"/>
</svg>