<svg xmlns="http://www.w3.org/2000/svg" version="1.1" x="0px" y="0px"
     width="24" height="24"
     viewBox="0 0 128 160" style="enable-background:new 0 0 128 128;" xml:space="preserve">
    <g>
        <path d="M112.4,15.7c-2,0-3.7,1.6-3.7,3.7l0,91.1c0,3.8-3.1,7-7,7h-76c-3,0-5.6-2-6.4-4.8c-0.2-0.6-0.3-1.3-0.3-2 c0.1-3,2.1-5.4,4.9-6.2c0.6-0.2,1.2-0.3,1.9-0.3h67.8c4.1,0,7.6-2.6,8.8-6.3c0.3-0.9,0.5-1.9,0.5-3l0-84.5c0-0.9-0.2-1.8-0.5-2.6  c-1-2.6-3.6-4.5-6.6-4.5H19.3c-3.9,0-7.1,3.2-7.1,7.1v95.2c0,0,0,0,0,0v2.6c-0.2,0.8-0.3,1.7-0.3,2.6c0,0.9,0.1,1.8,0.3,2.6  c1.2,6.4,6.9,11.3,13.6,11.3h76c7.2,0,13.2-5.4,14.1-12.3c0.1-0.6,0.1-1.3,0.1-1.9V19.4C116,17.4,114.4,15.7,112.4,15.7z  M32.4,37.3c0-1.1,0.9-2.1,2.1-2.1h45.6c1.1,0,2.1,0.9,2.1,2.1v33.2c0,1.1-0.9,2.1-2.1,2.1H34.5c-1.1,0-2.1-0.9-2.1-2.1V37.3z"/>
        <path d="M46.9,51h12.4c0.7,0,1.3-0.6,1.3-1.3s-0.6-1.3-1.3-1.3H46.9c-0.7,0-1.3,0.6-1.3,1.3S46.2,51,46.9,51z"/>
        <path d="M46.9,59.3h20.7c0.7,0,1.3-0.6,1.3-1.3c0-0.7-0.6-1.3-1.3-1.3H46.9c-0.7,0-1.3,0.6-1.3,1.3C45.6,58.7,46.2,59.3,46.9,59.3z"/>
    </g>
</svg>