<svg width="114" height="114" viewBox="0 0 114 114" fill="none" xmlns="http://www.w3.org/2000/svg">
<g clip-path="url(#clip0_53336_30859)">
<path d="M47.114 60.4555C47.114 60.4555 44.0918 62.2843 49.2159 62.8068C55.3909 63.5905 58.6803 63.4599 65.5084 62.1537C65.5084 62.1537 67.349 63.3293 69.8487 64.2437C54.4706 70.769 35.0253 63.8518 47.114 60.4555ZM45.1428 51.9709C45.1428 51.9709 41.8593 54.4527 46.9834 54.9752C53.6868 55.6284 58.9415 55.753 68.0081 53.9302C68.0081 53.9302 69.1896 55.2305 71.1609 55.8837C52.6359 61.3699 31.8724 56.4062 45.1428 51.9709ZM81.415 66.8502C81.415 66.8502 83.6475 68.679 78.9153 70.1159C70.11 72.7284 41.99 73.5121 34.1049 70.1159C31.344 68.9402 36.6046 67.2421 38.3087 66.9809C40.0187 66.589 40.939 66.589 40.939 66.589C37.9168 64.5049 20.8346 70.8996 32.2643 72.7284C63.6737 77.8227 89.5612 70.5077 81.409 66.8502H81.415ZM48.5628 43.0884C48.5628 43.0884 34.2356 46.4846 43.4387 47.6602C47.3753 48.1827 55.1296 48.0521 62.3556 47.5296C68.2693 47.0071 74.1831 45.9621 74.1831 45.9621C74.1831 45.9621 72.0812 46.8765 70.6384 47.7909C56.05 51.573 28.0606 49.8809 36.0762 45.9621C42.9103 42.6965 48.5628 43.0884 48.5628 43.0884ZM74.1831 57.3205C88.9021 49.7502 82.0681 42.4352 77.3359 43.3496C76.1543 43.6109 75.6318 43.8721 75.6318 43.8721C75.6318 43.8721 76.0237 43.0884 76.944 42.8271C86.2718 39.5615 93.6343 52.618 73.9218 57.7124C73.9218 57.7124 74.0525 57.5818 74.1831 57.3205ZM50.0056 77.9534C64.1962 78.8677 85.88 77.4309 86.4084 70.769C86.4084 70.769 85.3575 73.3815 74.7115 75.3409C62.6228 77.5615 47.6425 77.3002 38.8371 75.8634C38.8371 75.8634 40.6778 77.4309 50.0115 77.9534H50.0056Z" fill="#4E7896"/>
<path d="M65.2472 0C65.2472 0 73.3934 8.22344 57.4928 20.6328C44.7509 30.685 54.6012 36.4325 57.4928 42.9578C50.0056 36.3019 44.6143 30.4238 48.2956 24.9375C53.6869 16.8447 68.5365 12.9319 65.2472 0ZM61.0434 37.4775C64.8553 41.7822 59.9925 45.7009 59.9925 45.7009C59.9925 45.7009 69.7181 40.7372 65.2531 34.6038C61.174 28.7256 58.0212 25.8519 75.1034 16.0669C75.1034 16.0669 48.165 22.7228 61.0434 37.4775ZM51.3178 107.593V94.7922C51.3178 91.5325 49.4772 89.3119 44.8815 89.3119C42.2512 89.3119 40.0187 89.965 38.0475 90.7428L38.7065 93.0941C40.1494 92.5716 41.99 92.0491 43.9612 92.0491C46.455 92.0491 47.6425 93.0941 47.6425 95.1841V96.8822H46.3244C40.0187 96.8822 37.1272 99.2334 37.1272 103.016C37.1272 106.151 39.0984 107.979 42.649 107.979C44.8815 107.979 46.5915 106.934 48.165 105.628L48.4262 107.588H51.3178V107.593ZM47.6425 103.413C46.3244 104.589 44.8815 105.242 43.5634 105.242C41.8594 105.242 40.8084 104.197 40.8084 102.368C40.8084 100.54 41.8594 99.2334 46.0631 99.2334H47.6425V103.413ZM63.6737 107.593H59.0722L53.5562 89.7038H57.4987L60.9128 100.67L61.7025 103.936C63.4125 99.2334 64.7247 94.4003 65.2472 89.7038H69.1897C68.1387 95.5759 66.2981 101.977 63.6737 107.593ZM84.9597 107.593V94.7922C84.9597 91.5325 83.119 89.3119 78.5234 89.3119C75.8931 89.3119 73.6606 89.965 71.6894 90.7428L72.2119 93.0941C73.7912 92.5716 75.6319 92.0491 77.6031 92.0491C80.0969 92.0491 81.2784 93.0941 81.2784 95.1841V96.8822H79.9662C73.6606 96.8822 70.769 99.2334 70.769 103.016C70.769 106.151 72.6097 107.979 76.1544 107.979C78.5234 107.979 80.2275 106.934 81.8069 105.628L82.0681 107.588H84.9597V107.593ZM81.2784 103.413C79.9662 104.589 78.5234 105.242 77.2053 105.242C75.5012 105.242 74.4444 104.197 74.4444 102.368C74.4444 100.54 75.5012 99.2334 79.705 99.2334H81.2784V103.413ZM33.054 110.592C32.0031 112.159 30.4237 113.335 28.4584 113.988L26.7484 111.904C28.0606 111.12 29.3728 109.945 29.9012 108.9C30.4237 107.985 30.5544 106.679 30.5544 103.675V83.3031H34.4969V103.413C34.4969 107.463 34.105 109.03 33.054 110.598V110.592Z" fill="#D3DCE6"/>
</g>
<defs>
<clipPath id="clip0_53336_30859">
<rect width="114" height="114" fill="white"/>
</clipPath>
</defs>
</svg>
