<svg width="114" height="115" viewBox="0 0 114 115" fill="none" xmlns="http://www.w3.org/2000/svg">
<g opacity="0.5">
<path d="M35.1877 16.8338L21.1478 30.8741L3.76492 48.9251C-0.915072 54.2736 -1.58377 62.965 3.76489 68.3136L37.862 101.743C44.5477 107.76 56.582 105.085 56.582 96.3939V19.1945C56.582 11.4851 44.5477 7.47388 35.1877 16.8338Z" fill="#1E4450"/>
<path d="M59.256 102.411C54.576 97.8128 37.6457 80.799 36.526 79.6793L36.5237 79.677C35.406 78.5593 35.1875 78.3408 35.1875 76.3364V39.565C35.1875 37.8198 35.1875 37.5593 36.526 36.2222C40.992 31.7559 55.321 17.4259 59.256 13.4909C63.9368 8.81002 69.9517 9.47808 73.9646 13.4909L110.736 50.2622C114.747 54.2736 115.416 61.0236 110.736 65.6393C98.3849 77.8207 76.6893 99.772 73.9646 102.411C69.9532 106.295 63.936 107.008 59.256 102.411Z" fill="#0179F2"/>
<path d="M70.9423 17.8227C67.2514 14.1318 66.6104 14.1593 66.6104 18.1709V99.0677C66.6105 102.225 67.5207 102.169 70.6218 99.0677C73.7229 95.9665 105.387 63.5928 108.062 60.9592C110.736 58.3255 110.736 57.6163 108.062 54.942L70.9423 17.8227Z" fill="#1885F3"/>
</g>
</svg>
