<svg width="114" height="115" viewBox="0 0 114 115" fill="none" xmlns="http://www.w3.org/2000/svg">
<g opacity="0.5" clip-path="url(#clip0_53675_963)">
<path fill-rule="evenodd" clip-rule="evenodd" d="M55.1946 100.408C55.0876 100.562 54.9753 100.712 54.8578 100.857L55.1946 100.408ZM52.8422 12.3265L53.4138 12.7014C53.2297 12.5703 53.039 12.4452 52.8422 12.3265ZM53.4138 12.7014C53.6008 12.8346 53.7811 12.974 53.9541 13.1195L53.4138 12.7014ZM54.9875 14.1635L54.5541 13.6775C54.7062 13.8341 54.8508 13.9962 54.9875 14.1635ZM54.9875 14.1635C55.1527 14.3656 55.3065 14.5752 55.4483 14.7919L54.9875 14.1635ZM56.0941 16.0339L55.7676 15.3307C55.8893 15.5585 55.9984 15.793 56.0941 16.0339ZM56.4978 17.5155L56.3425 16.7816C56.407 17.0211 56.459 17.2659 56.4978 17.5155ZM56.5009 97.024L56.5689 96.3079C56.5558 96.5516 56.533 96.7904 56.5009 97.024ZM56.3032 98.0107L56.4109 97.5523C56.3792 97.7075 56.3432 97.8603 56.3032 98.0107ZM55.9549 99.0284L56.141 98.5423C56.0841 98.7076 56.022 98.8696 55.9549 99.0284ZM55.4483 100.018L55.7221 99.5278C55.6365 99.6953 55.5452 99.8587 55.4483 100.018Z" fill="#1E4450"/>
<path d="M35.1877 16.2555L21.1478 30.2958L3.76493 48.3468C-0.91506 53.6953 -1.58376 62.3868 3.7649 67.7353L37.862 101.164C41.7124 104.63 47.337 105.212 51.415 103.423C51.5928 103.345 51.7676 103.262 51.9392 103.175L52.387 102.934C52.5076 102.865 52.6265 102.793 52.7433 102.72L53.1894 102.42C53.3297 102.32 53.4668 102.216 53.6003 102.108L54.1138 101.661C54.2537 101.529 54.3888 101.392 54.5187 101.251L54.8578 100.857L55.1946 100.408C55.2828 100.281 55.3675 100.151 55.4483 100.018L55.7221 99.5278C55.8052 99.3651 55.8829 99.1987 55.9549 99.0284L56.141 98.5423C56.2009 98.3686 56.255 98.1914 56.3032 98.0107L56.4109 97.5523C56.4462 97.3792 56.4763 97.2031 56.5009 97.024L56.5689 96.3079C56.5776 96.146 56.582 95.9819 56.582 95.8156V18.6163C56.582 18.2402 56.5534 17.8729 56.4978 17.5155L56.3425 16.7816C56.2737 16.5262 56.1907 16.2769 56.0941 16.0339L55.7676 15.3307C55.6693 15.1466 55.5627 14.9669 55.4483 14.7919L54.9875 14.1635L54.5541 13.6775C54.3653 13.4829 54.1651 13.2968 53.9541 13.1195L53.4138 12.7014L52.8422 12.3265C48.5441 9.73354 41.2963 10.1469 35.1877 16.2555Z" fill="#1E4450"/>
<path d="M56.5819 95.8156V18.6162C56.5819 18.2401 56.5533 17.8728 56.4977 17.5154L56.3424 16.7815C56.2737 16.5262 56.1906 16.2768 56.094 16.0338L55.7676 15.3306C55.6692 15.1466 55.5627 14.9669 55.4482 14.7918L54.9875 14.1635L54.5541 13.6774C54.3653 13.4829 54.165 13.2967 53.9541 13.1194L53.4137 12.7013L52.8421 12.3264L30.8948 32.4112C29.5563 33.7483 29.1038 34.9914 29.1038 36.7367V77.2582C29.1038 79.2626 30.0468 81.0658 31.1645 82.1835L52.3869 102.934C52.5076 102.865 52.6264 102.793 52.7433 102.72L53.1893 102.42C53.3296 102.32 53.4667 102.216 53.6003 102.108L54.1138 101.661C54.2536 101.529 54.3887 101.392 54.5187 101.251L54.8578 100.857L55.1945 100.408C55.2828 100.281 55.3674 100.151 55.4482 100.018L55.722 99.5278C55.8052 99.3651 55.8829 99.1986 55.9548 99.0284L56.141 98.5422C56.2008 98.3686 56.2549 98.1914 56.3031 98.0106L56.4108 97.5523C56.4462 97.3792 56.4762 97.2031 56.5009 97.024L56.5688 96.3078C56.5775 96.146 56.5819 95.9819 56.5819 95.8156Z" fill="#1D414D"/>
<path d="M59.256 101.832C54.576 97.2345 37.6457 80.2206 36.526 79.101L36.5237 79.0986C35.406 77.9809 35.1875 77.7625 35.1875 75.7581V38.9868C35.1875 37.2415 35.1875 36.9811 36.526 35.6439C40.992 31.1776 55.321 16.8477 59.256 12.9126C63.9368 8.23177 69.9517 8.89984 73.9646 12.9126L110.736 49.6839C114.747 53.6953 115.416 60.4453 110.736 65.061C98.3848 77.2424 76.6893 99.1937 73.9646 101.832C69.9531 105.717 63.936 106.43 59.256 101.832Z" fill="#0179F2"/>
<path d="M70.9421 17.2444C67.2511 13.5536 66.6101 13.5811 66.6101 17.5926V98.4894C66.6102 101.647 67.5204 101.591 70.6216 98.4894C73.7227 95.3882 105.387 63.0145 108.061 60.3809C110.736 57.7472 110.736 57.038 108.061 54.3637L70.9421 17.2444Z" fill="#1885F3"/>
</g>
<defs>
<clipPath id="clip0_53675_963">
<rect width="114" height="114" fill="white" transform="translate(0 0.333252)"/>
</clipPath>
</defs>
</svg>
