<svg width="114" height="114" viewBox="0 0 114 114" fill="none" xmlns="http://www.w3.org/2000/svg">
<g clip-path="url(#clip0_53336_30902)">
<mask id="mask0_53336_30902" style="mask-type:luminance" maskUnits="userSpaceOnUse" x="0" y="63" width="49" height="25">
<path d="M0 63.8398H48.64V87.4711H0V63.8398Z" fill="white"/>
</mask>
<g mask="url(#mask0_53336_30902)">
<path d="M0.42749 82.2461H4.15624V67.4024L9.92749 80.3521C10.6103 81.9077 11.5425 82.4718 13.3653 82.4718C15.1941 82.4718 16.0906 81.9136 16.7734 80.3521L22.5447 67.4024V82.2521H26.2734V67.4261C26.2734 65.9833 25.6975 65.2827 24.5159 64.9205C21.6837 64.0299 19.7837 64.8018 18.9228 66.7314L13.2584 79.503L7.77812 66.7255C6.9528 64.7958 5.01718 64.0239 2.18499 64.9146C1.00343 65.2768 0.42749 65.9774 0.42749 67.4202V82.2461ZM29.3669 70.1633H33.0956V78.3452C33.06 78.7905 33.2381 79.8296 35.2806 79.8652C36.3197 79.883 43.32 79.8652 43.3853 79.8652V70.1218H47.12C47.1378 70.1218 47.1141 83.4039 47.1141 83.4633C47.1378 86.7408 43.0884 87.4474 41.2181 87.5068H29.45V84.9774L41.2419 84.9714C43.6406 84.7161 43.3556 83.5168 43.3556 83.113V82.1214H35.435C31.7478 82.0918 29.4025 80.4649 29.3728 78.6005C29.3728 78.4343 29.45 70.2405 29.3728 70.1633H29.3669Z" fill="#D3DCE6"/>
</g>
<path d="M49.9937 82.2461H60.7108C61.9637 82.2461 63.1808 81.9849 64.1487 81.5277C65.7637 80.7796 66.5533 79.7643 66.5533 78.4402V75.6911C66.5533 74.6046 65.6568 73.5952 63.8993 72.9183C62.9671 72.5561 61.8212 72.3661 60.7108 72.3661H56.1924C54.6902 72.3661 53.9718 71.909 53.7937 70.8936C53.758 70.7749 53.758 70.674 53.758 70.5552V68.8452C53.758 68.7502 53.758 68.6493 53.7937 68.5305C53.9718 67.7586 54.3696 67.5449 55.6937 67.4143C55.8005 67.4143 55.943 67.3905 56.0499 67.3905H66.6958V64.8849H56.228C54.7258 64.8849 53.9362 64.9799 53.2177 65.1996C50.9971 65.9002 50.0293 67.0105 50.0293 68.9402V71.1371C50.0293 72.8233 51.9293 74.2721 55.1177 74.6046C55.474 74.6283 55.8302 74.6521 56.1924 74.6521H60.0637C60.2062 74.6521 60.3487 74.6521 60.4555 74.6818C61.6371 74.7768 62.1418 74.9905 62.498 75.424C62.7177 75.6496 62.789 75.8633 62.789 76.0949V78.2918C62.789 78.553 62.6049 78.8915 62.2487 79.1824C61.928 79.4733 61.3877 79.6633 60.6693 79.7108C60.5268 79.7108 60.4199 79.7346 60.2774 79.7346H49.9937V82.2461ZM89.8046 77.888C89.8046 80.4649 91.7046 81.9136 95.5402 82.1986C95.8965 82.2283 96.2527 82.2461 96.6149 82.2461H106.329V79.7405H96.5437C94.3587 79.7405 93.5333 79.1883 93.5333 77.8583V64.8908H89.8046V77.888ZM68.9283 78.0186V69.0768C68.9283 66.8086 70.5077 65.4311 73.6368 64.9977C73.9693 64.9502 74.3018 64.9205 74.6402 64.9205H81.7177C82.0621 64.9205 82.4124 64.9502 82.7568 64.9977C85.8799 65.4311 87.4652 66.8086 87.4652 69.0768V78.0186C87.4652 79.8593 86.7943 80.8449 85.2446 81.4861L88.914 84.829H84.5855L81.6168 82.1274L78.6243 82.3174H74.6402C73.9574 82.3174 73.239 82.2224 72.4493 82.0027C70.0743 81.3496 68.9283 80.0908 68.9283 78.0186ZM72.954 77.793C72.954 77.9118 72.9896 78.0365 73.0252 78.179C73.2449 79.218 74.2127 79.7999 75.6793 79.7999H79.0637L75.9524 76.9677H80.2808L82.9883 79.4377C83.4871 79.1646 83.8196 78.7549 83.9265 78.2265C83.9621 78.1077 83.9621 77.989 83.9621 77.8643V69.2965C83.9621 69.2015 83.9621 69.0708 83.9265 68.958C83.7068 67.9902 82.739 67.438 81.308 67.438H75.6852C74.0287 67.438 72.9599 68.1624 72.9599 69.2965V77.799L72.954 77.793Z" fill="#D3DCE6"/>
<path d="M109.606 60.7286C107.314 60.6693 105.563 60.883 104.067 61.5183C103.639 61.7024 102.962 61.7083 102.891 62.2427C103.128 62.4921 103.164 62.8602 103.348 63.163C103.704 63.7449 104.31 64.5286 104.85 64.9383C105.438 65.3836 106.044 65.8646 106.673 66.2505C107.795 66.9452 109.048 67.3371 110.129 68.0258C110.764 68.4355 111.393 68.9461 112.017 69.4093C112.32 69.6349 112.527 69.9911 112.925 70.1336V70.0624C112.717 69.7952 112.664 69.4271 112.468 69.148L111.625 68.293C110.794 67.1768 109.743 66.209 108.627 65.3955C107.736 64.7543 105.741 63.8815 105.367 62.8365L105.302 62.7711C105.937 62.694 106.673 62.4683 107.261 62.308C108.241 62.0468 109.113 62.1121 110.129 61.8508L111.494 61.453V61.1918C110.984 60.6633 110.622 59.9627 110.063 59.4818C108.603 58.229 107.012 56.9761 105.373 55.9311C104.464 55.3493 103.336 54.9752 102.374 54.4883C102.048 54.3221 101.478 54.233 101.264 53.9599C100.759 53.3068 100.486 52.4815 100.094 51.7274C99.275 50.1421 98.4734 48.4083 97.749 46.734C97.2562 45.594 96.9297 44.4718 96.3181 43.4446C93.3553 38.5402 90.1728 35.5774 85.2387 32.668C84.1878 32.0505 82.929 31.8011 81.5931 31.4865L79.4437 31.3499C79.0044 31.1658 78.5472 30.6255 78.1375 30.3643C76.5047 29.3252 72.3128 27.0571 71.1015 30.0318C70.3356 31.914 72.2415 33.7486 72.9244 34.6986C73.4053 35.3696 74.0169 36.1177 74.3612 36.8658C74.5809 37.3646 74.6225 37.8574 74.8125 38.3799C75.2875 39.6624 75.7031 41.0696 76.3147 42.2571C76.6234 42.8627 76.9619 43.4921 77.3537 44.0324C77.5972 44.3649 78.0069 44.5074 78.0722 45.018C77.6684 45.588 77.6447 46.4668 77.419 47.1911C76.4037 50.4271 76.7837 54.4527 78.2681 56.8515C78.7194 57.5877 79.794 59.1671 81.2665 58.5615C82.549 58.033 82.2581 56.3943 82.6322 54.9455C82.7153 54.619 82.6619 54.3755 82.8281 54.1558V54.2211L84.0037 56.5902C84.8706 57.9974 86.4084 59.4758 87.7147 60.4674C88.3915 60.984 88.9319 61.8746 89.7987 62.1774V62.1121H89.7334C89.5672 61.8449 89.3 61.7321 89.0803 61.5183C88.5697 61.0196 88.0056 60.3902 87.584 59.8143C86.3965 58.1874 85.3456 56.4061 84.3897 54.5536C83.9325 53.669 83.5406 52.6952 83.1547 51.7927C83.0062 51.4483 83.0062 50.9199 82.6975 50.7418C82.2759 51.4008 81.6584 51.9352 81.3319 52.713C80.8094 53.9599 80.7381 55.474 80.5481 57.0533C80.4353 57.0949 80.4828 57.0652 80.4175 57.1186C79.509 56.899 79.1884 55.9549 78.8559 55.1474C78.0009 53.099 77.8406 49.8096 78.5947 47.4524C78.7847 46.8468 79.6634 44.929 79.3072 44.3649C79.1409 43.8068 78.5828 43.4743 78.2681 43.0468C77.8822 42.5183 77.4903 41.8236 77.2231 41.2121C76.5284 39.6149 76.2019 37.8277 75.4656 36.2127C75.1153 35.4408 74.5215 34.663 74.0347 33.9861C73.4944 33.2261 72.8887 32.668 72.4672 31.7536C72.3187 31.4271 72.1169 30.9046 72.3365 30.5721C72.384 30.3583 72.5147 30.2218 72.7284 30.1743C73.1084 29.8833 74.1594 30.2752 74.5572 30.4415C75.5962 30.8749 76.469 31.2965 77.3537 31.8843C77.7812 32.1633 78.2087 32.7215 78.7253 32.8699H79.3072C80.2275 33.0836 81.2547 32.9411 82.1097 33.2024C83.6237 33.6655 84.9834 34.3899 86.2184 35.1736C89.9709 37.5665 93.0406 40.9686 95.1425 45.0418C95.4809 45.6949 95.6234 46.3183 95.9262 47.013C96.5259 48.4024 97.28 49.8511 97.8797 51.2168C98.4734 52.5824 99.0553 53.9599 99.8984 55.094C100.344 55.6936 102.054 56.0143 102.832 56.3468C103.378 56.5783 104.268 56.8218 104.785 57.1305C105.771 57.7361 106.727 58.4486 107.653 59.1077C108.116 59.4343 109.535 60.1527 109.606 60.7465V60.7286Z" fill="#D3DCE6"/>
<path fill-rule="evenodd" clip-rule="evenodd" d="M80.4829 35.6903C80.0079 35.6784 79.6695 35.7378 79.3132 35.8209V35.8862H79.3785C79.6042 36.3553 80.0079 36.664 80.287 37.0678L80.9401 38.4453L81.0054 38.38C81.4092 38.095 81.5932 37.6378 81.5932 36.9371C81.427 36.765 81.4032 36.5512 81.2667 36.3434C81.0767 36.0703 80.7145 35.9159 80.4829 35.6843V35.6903Z" fill="#D3DCE6"/>
<path fill-rule="evenodd" clip-rule="evenodd" d="M108.08 79.6693C108.08 81.3259 109.375 82.4421 110.823 82.4421C112.278 82.4421 113.573 81.3259 113.573 79.6693C113.573 78.0127 112.278 76.8965 110.823 76.8965C109.375 76.8965 108.08 78.0127 108.08 79.6693ZM112.955 79.6693C112.955 80.928 112.005 81.8662 110.823 81.8662C109.63 81.8662 108.692 80.928 108.692 79.6693C108.692 78.4165 109.63 77.4724 110.823 77.4724C112.005 77.4724 112.955 78.4165 112.955 79.6693ZM111.566 81.2546H112.183L111.281 79.8652C111.762 79.8118 112.13 79.5743 112.13 78.9984C112.13 78.3571 111.726 78.0899 110.948 78.0899H109.725V81.2546H110.253V79.883H110.746L111.566 81.2546ZM110.253 79.4377V78.5293H110.859C111.174 78.5293 111.56 78.5887 111.56 78.9627C111.56 79.4021 111.215 79.4437 110.818 79.4437H110.253V79.4377Z" fill="#D3DCE6"/>
</g>
<defs>
<clipPath id="clip0_53336_30902">
<rect width="114" height="114" fill="white"/>
</clipPath>
</defs>
</svg>
