<svg width="114" height="114" viewBox="0 0 114 114" fill="none" xmlns="http://www.w3.org/2000/svg">
<g clip-path="url(#clip0_53342_30944)">
<mask id="mask0_53342_30944" style="mask-type:luminance" maskUnits="userSpaceOnUse" x="27" y="50" width="77" height="31">
<path d="M27.3601 50.16H103.36V80.085H27.3601V50.16Z" fill="white"/>
</mask>
<g mask="url(#mask0_53342_30944)">
<path d="M40.9808 51.4901L29.4086 57.9679C28.9752 58.2113 28.708 58.6626 28.708 59.1435V72.117C28.708 72.5979 28.9752 73.0492 29.4086 73.2926L40.9808 79.7763C41.4143 80.0198 41.9486 80.0198 42.3761 79.7763L53.9483 73.2926C54.3758 73.0492 54.643 72.5979 54.643 72.117V59.1435C54.643 58.6626 54.3758 58.2113 53.9424 57.9679L42.3761 51.4901C42.1564 51.3654 41.9189 51.306 41.6755 51.306C41.4321 51.306 41.1946 51.3654 40.9749 51.4901M100.498 63.1632L98.5686 64.2438C98.4974 64.2854 98.4558 64.3567 98.4558 64.4398V66.601C98.4558 66.6842 98.5033 66.7613 98.5686 66.797L100.498 67.8776C100.576 67.9192 100.659 67.9192 100.736 67.8776L102.66 66.797C102.731 66.7613 102.778 66.6842 102.778 66.601V64.4398C102.778 64.3567 102.731 64.2854 102.66 64.2438L100.73 63.1632C100.694 63.1454 100.659 63.1335 100.617 63.1335C100.576 63.1335 100.534 63.1454 100.498 63.1632Z" fill="#D3DCE6"/>
</g>
<mask id="mask1_53342_30944" style="mask-type:luminance" maskUnits="userSpaceOnUse" x="59" y="34" width="28" height="47">
<path d="M59.28 34.485H86.64V80.085H59.28V34.485Z" fill="white"/>
</mask>
<g mask="url(#mask1_53342_30944)">
<path d="M84.7044 37.7388L79.0697 34.5563C78.8975 34.4613 78.6778 34.4613 78.5056 34.5682C78.3275 34.6691 78.2206 34.8591 78.2206 35.0669V54.2866L73.0253 51.3772C72.8056 51.2585 72.5622 51.1991 72.3247 51.1991C72.0812 51.1991 71.8437 51.2585 71.6241 51.3772L60.0578 57.861C59.6244 58.1044 59.3572 58.5497 59.3572 59.0307V72.0041C59.3572 72.491 59.6244 72.9363 60.0578 73.1797L71.63 79.6635C72.0575 79.9069 72.5978 79.9069 73.0253 79.6635L84.5975 73.1797C85.025 72.9363 85.2922 72.491 85.2922 72.0041V38.7541C85.2922 38.3325 85.0666 37.9466 84.7044 37.7388ZM77.9 68.9997L72.6453 71.9507C72.4494 72.0635 72.2059 72.0635 72.01 71.9507L66.7494 68.9997C66.5534 68.8928 66.4287 68.685 66.4287 68.4653V62.5694C66.4287 62.3497 66.5534 62.1478 66.7494 62.035L72.01 59.09H72.0041C72.105 59.0366 72.2119 59.0069 72.3247 59.0069C72.4375 59.0069 72.5444 59.0366 72.6453 59.09L77.9 62.035C78.0959 62.1478 78.2206 62.3557 78.2206 62.5753V68.4713C78.2206 68.685 78.0959 68.8928 77.9 68.9997Z" fill="#D3DCE6"/>
</g>
<mask id="mask2_53342_30944" style="mask-type:luminance" maskUnits="userSpaceOnUse" x="27" y="50" width="28" height="31">
<path d="M27.3601 50.16H54.7201V80.085H27.3601V50.16Z" fill="white"/>
</mask>
<g mask="url(#mask2_53342_30944)">
<path d="M40.9808 51.4901L28.708 72.117C28.708 72.5979 28.9752 73.0492 29.4086 73.2926L40.9808 79.7763C41.4143 80.0198 41.9486 80.0198 42.3761 79.7763L54.643 59.1435C54.643 58.6626 54.3758 58.2113 53.9424 57.9679L42.3761 51.4901C42.1564 51.3654 41.9189 51.306 41.6755 51.306C41.4321 51.306 41.1946 51.3654 40.9749 51.4901" fill="#D3DCE6"/>
<path d="M40.9808 51.4901L29.4086 57.9679C28.9752 58.2113 28.708 58.6626 28.708 59.1435L40.9808 79.7763C41.4083 80.0198 41.9427 80.0198 42.3761 79.7763L53.9424 73.2926C54.3758 73.0492 54.643 72.5979 54.643 72.117L42.3761 51.4901C42.1564 51.3654 41.9189 51.306 41.6755 51.306C41.4321 51.306 41.1946 51.3654 40.9749 51.4901" fill="#D3DCE6"/>
</g>
<mask id="mask3_53342_30944" style="mask-type:luminance" maskUnits="userSpaceOnUse" x="0" y="50" width="114" height="31">
<path d="M0 50.16H114V80.085H0V50.16Z" fill="white"/>
</mask>
<g mask="url(#mask3_53342_30944)">
<path d="M112.884 57.861L101.317 51.3772C101.098 51.2585 100.854 51.1991 100.617 51.1991C100.373 51.1991 100.13 51.2585 99.9162 51.3772L88.3499 57.861C87.9165 58.1044 87.6493 58.5616 87.6493 59.0603V71.9803C87.6493 72.4791 87.9165 72.9422 88.3499 73.1797L99.9221 79.6694C100.356 79.9128 100.884 79.9128 101.317 79.6694L106.655 76.6769C107.142 76.4038 107.136 75.6913 106.649 75.4182L95.0415 69.0057C94.8455 68.8928 94.7208 68.685 94.7208 68.4594V62.5753C94.7208 62.3557 94.8396 62.1478 95.0296 62.0469L100.296 59.096C100.391 59.0425 100.504 59.0128 100.611 59.0128C100.724 59.0128 100.831 59.0425 100.931 59.096L106.198 62.0469C106.388 62.1538 106.507 62.3557 106.507 62.5753V67.3788C106.507 67.5866 106.614 67.7766 106.792 67.8775C106.97 67.9785 107.184 67.9785 107.362 67.8775L113.014 64.5525C113.365 64.3447 113.584 63.9647 113.584 63.555V59.0663C113.584 58.5616 113.311 58.1044 112.884 57.861ZM25.6499 57.861L14.0837 51.3772C13.8699 51.2585 13.6265 51.1991 13.383 51.1991C13.1455 51.1991 12.9021 51.2585 12.6824 51.3772H12.6883L1.11615 57.861C0.688652 58.1044 0.415527 58.5616 0.415527 59.0603V76.8847C0.415527 77.0866 0.528339 77.2825 0.700527 77.3835C0.878652 77.4844 1.09834 77.4844 1.27646 77.3775L6.92897 74.0525C7.27334 73.8507 7.49303 73.4707 7.49303 73.061V62.5694C7.49303 62.3497 7.60584 62.1478 7.79584 62.041L13.0683 59.09C13.1633 59.0366 13.2762 59.0128 13.383 59.0128C13.4958 59.0128 13.6027 59.0425 13.7037 59.09L18.9702 62.0469C19.1602 62.1478 19.279 62.3557 19.279 62.5753V73.061C19.279 73.4707 19.4927 73.8507 19.843 74.0585L25.4955 77.3835C25.6737 77.4844 25.8933 77.4844 26.0655 77.3835C26.2437 77.2825 26.3505 77.0866 26.3505 76.8847V59.0663C26.3505 58.5616 26.0833 58.1044 25.6499 57.861Z" fill="#D3DCE6"/>
</g>
</g>
<defs>
<clipPath id="clip0_53342_30944">
<rect width="114" height="114" fill="white"/>
</clipPath>
</defs>
</svg>
