<svg width="114" height="114" viewBox="0 0 114 114" fill="none" xmlns="http://www.w3.org/2000/svg">
<g clip-path="url(#clip0_53342_30920)">
<mask id="mask0_53342_30920" style="mask-type:luminance" maskUnits="userSpaceOnUse" x="0" y="26" width="114" height="62">
<path d="M0 26.9443H114V87.3643H0V26.9443Z" fill="white"/>
</mask>
<g mask="url(#mask0_53342_30920)">
<mask id="mask1_53342_30920" style="mask-type:luminance" maskUnits="userSpaceOnUse" x="0" y="27" width="114" height="61">
<path d="M114 57.1543C114 58.14 113.911 59.1256 113.727 60.1112C113.543 61.0909 113.27 62.0647 112.908 63.0325C112.539 64.0003 112.088 64.9562 111.548 65.9003C111.002 66.8443 110.378 67.7765 109.66 68.685C108.947 69.5993 108.152 70.49 107.267 71.3568C106.388 72.2297 105.432 73.0728 104.393 73.8922C103.354 74.7175 102.244 75.5072 101.062 76.2672C99.8747 77.0331 98.6278 77.7634 97.3037 78.4581C95.9856 79.1587 94.6022 79.8178 93.1594 80.4472C91.7166 81.0706 90.2203 81.6584 88.6647 82.2047C87.115 82.7568 85.5178 83.2615 83.8672 83.7247C82.2225 84.1937 80.5362 84.6153 78.8144 84.9893C77.0866 85.3693 75.335 85.7018 73.5478 85.9868C71.7606 86.2718 69.9497 86.5153 68.1209 86.7053C66.2862 86.9012 64.4456 87.0437 62.5872 87.1387C60.7287 87.2337 58.8644 87.2872 57 87.2872C55.1356 87.2872 53.2712 87.2337 51.4128 87.1387C49.5544 87.0437 47.7137 86.9012 45.8791 86.7053C44.0503 86.5153 42.2394 86.2718 40.4522 85.9868C38.665 85.7018 36.9134 85.3693 35.1856 84.9893C33.4637 84.6153 31.7775 84.1937 30.1328 83.7247C28.4822 83.2615 26.885 82.7568 25.3353 82.2047C23.7797 81.6584 22.2834 81.0706 20.8406 80.4472C19.3978 79.8178 18.0144 79.1587 16.6962 78.4581C15.3722 77.7634 14.1253 77.0331 12.9378 76.2672C11.7562 75.5072 10.6459 74.7175 9.60687 73.8922C8.56781 73.0728 7.61187 72.2297 6.73313 71.3568C5.84844 70.49 5.05281 69.5993 4.34031 68.685C3.62187 67.7765 2.99844 66.8443 2.45219 65.9003C1.91187 64.9562 1.46063 64.0003 1.0925 63.0325C0.730313 62.0647 0.457187 61.0909 0.273126 60.1112C0.0890626 59.1256 0 58.14 0 57.1543C0 56.1687 0.0890626 55.1831 0.273126 54.2034C0.457187 53.2178 0.730313 52.244 1.0925 51.2762C1.46063 50.3084 1.91187 49.3525 2.45219 48.4084C2.99844 47.4643 3.62187 46.5381 4.34031 45.6237C5.05281 44.7153 5.84844 43.8247 6.73313 42.9518C7.61187 42.085 8.56781 41.2359 9.60687 40.4165C10.6459 39.5972 11.7562 38.8015 12.9378 38.0415C14.1253 37.2815 15.3722 36.5512 16.6962 35.8506C18.0144 35.15 19.3978 34.4909 20.8406 33.8675C22.2834 33.2381 23.7797 32.6503 25.3353 32.104C26.885 31.5578 28.4822 31.0472 30.1328 30.584C31.7775 30.1209 33.4637 29.6993 35.1856 29.3193C36.9134 28.9393 38.665 28.6068 40.4522 28.3218C42.2394 28.0368 44.0503 27.7993 45.8791 27.6034C47.7137 27.4134 49.5544 27.265 51.4128 27.17C53.2712 27.075 55.1356 27.0275 57 27.0275C58.8644 27.0275 60.7287 27.075 62.5872 27.17C64.4456 27.265 66.2862 27.4134 68.1209 27.6034C69.9497 27.7993 71.7606 28.0368 73.5478 28.3218C75.335 28.6068 77.0866 28.9393 78.8144 29.3193C80.5362 29.6993 82.2225 30.1209 83.8672 30.584C85.5178 31.0472 87.115 31.5578 88.6647 32.104C90.2203 32.6503 91.7166 33.2381 93.1594 33.8675C94.6022 34.4909 95.9856 35.15 97.3037 35.8506C98.6278 36.5512 99.8747 37.2815 101.062 38.0415C102.244 38.8015 103.354 39.5972 104.393 40.4165C105.432 41.2359 106.388 42.085 107.267 42.9518C108.152 43.8247 108.947 44.7153 109.66 45.6237C110.378 46.5381 111.002 47.4643 111.548 48.4084C112.088 49.3525 112.539 50.3084 112.908 51.2762C113.27 52.244 113.543 53.2178 113.727 54.2034C113.911 55.1831 114 56.1687 114 57.1543Z" fill="white"/>
</mask>
<g mask="url(#mask1_53342_30920)">
<path d="M0 27.0275V87.2872H114V27.0275H0Z" fill="url(#paint0_radial_53342_30920)"/>
</g>
</g>
<path d="M111.773 57.1543C111.773 58.0687 111.684 58.9771 111.512 59.8915C111.334 60.7999 111.073 61.7024 110.722 62.599C110.372 63.4896 109.933 64.3802 109.416 65.2531C108.894 66.1259 108.288 66.9868 107.605 67.8299C106.917 68.6731 106.151 69.4984 105.307 70.3059C104.458 71.1074 103.538 71.8912 102.541 72.6512C101.543 73.4112 100.48 74.1415 99.3403 74.8481C98.2003 75.5546 97.0009 76.2315 95.7303 76.8787C94.4597 77.5259 93.1356 78.1374 91.7462 78.7134C90.3628 79.2952 88.92 79.8356 87.4297 80.3462C85.9394 80.8509 84.4016 81.3199 82.8222 81.7534C81.2369 82.1809 79.6159 82.5727 77.9594 82.9231C76.3028 83.2734 74.6166 83.5821 72.9006 83.8434C71.1847 84.1106 69.445 84.3302 67.6875 84.5084C65.9241 84.6865 64.1547 84.8231 62.3675 84.9121C60.5863 85.0012 58.7931 85.0487 57 85.0487C55.2069 85.0487 53.4137 85.0012 51.6325 84.9121C49.8453 84.8231 48.0759 84.6865 46.3125 84.5084C44.555 84.3302 42.8153 84.1106 41.0994 83.8434C39.3834 83.5821 37.6972 83.2734 36.0406 82.9231C34.3841 82.5727 32.7631 82.1809 31.1778 81.7534C29.5984 81.3199 28.0606 80.8509 26.5703 80.3462C25.08 79.8356 23.6372 79.2952 22.2537 78.7134C20.8644 78.1374 19.5403 77.5259 18.2697 76.8787C16.9991 76.2315 15.7997 75.5546 14.6597 74.8481C13.5197 74.1415 12.4569 73.4112 11.4594 72.6512C10.4619 71.8912 9.54156 71.1074 8.6925 70.3059C7.84937 69.4984 7.08344 68.6731 6.39469 67.8299C5.71187 66.9868 5.10625 66.1259 4.58375 65.2531C4.06719 64.3802 3.62781 63.4896 3.2775 62.599C2.92719 61.7024 2.66594 60.7999 2.48781 59.8915C2.31563 58.9771 2.22656 58.0687 2.22656 57.1543C2.22656 56.2399 2.31563 55.3315 2.48781 54.4231C2.66594 53.5146 2.92719 52.6121 3.2775 51.7156C3.62781 50.819 4.06719 49.9343 4.58375 49.0615C5.10625 48.1827 5.71187 47.3277 6.39469 46.4846C7.08344 45.6356 7.84937 44.8162 8.6925 44.0087C9.54156 43.2012 10.4619 42.4174 11.4594 41.6574C12.4569 40.9034 13.5197 40.1671 14.6597 39.4606C15.7997 38.754 16.9991 38.0771 18.2697 37.4359C19.5403 36.7887 20.8644 36.1771 22.2537 35.5952C23.6372 35.0134 25.08 34.4731 26.5703 33.9624C28.0606 33.4577 29.5984 32.9887 31.1778 32.5552C32.7631 32.1277 34.3841 31.7359 36.0406 31.3856C37.6972 31.0352 39.3834 30.7324 41.0994 30.4652C42.8153 30.1981 44.555 29.9784 46.3125 29.8002C48.0759 29.6221 49.8453 29.4856 51.6325 29.3965C53.4137 29.3074 55.2069 29.2659 57 29.2659C58.7931 29.2659 60.5863 29.3074 62.3675 29.3965C64.1547 29.4856 65.9241 29.6221 67.6875 29.8002C69.445 29.9784 71.1847 30.1981 72.9006 30.4652C74.6166 30.7324 76.3028 31.0352 77.9594 31.3856C79.6159 31.7359 81.2369 32.1277 82.8222 32.5552C84.4016 32.9887 85.9394 33.4577 87.4297 33.9624C88.92 34.4731 90.3628 35.0134 91.7462 35.5952C93.1356 36.1771 94.4597 36.7887 95.7303 37.4359C97.0009 38.0771 98.2003 38.754 99.3403 39.4606C100.48 40.1671 101.543 40.9034 102.541 41.6574C103.538 42.4174 104.458 43.2012 105.307 44.0087C106.151 44.8162 106.917 45.6356 107.605 46.4846C108.288 47.3277 108.894 48.1827 109.416 49.0615C109.933 49.9343 110.372 50.819 110.722 51.7156C111.073 52.6121 111.334 53.5146 111.512 54.4231C111.684 55.3315 111.773 56.2399 111.773 57.1543Z" fill="#D3DCE6"/>
<path d="M68.0853 66.1971L70.8046 52.1431C71.4281 48.9606 70.8937 46.5915 69.2906 45.1131C67.729 43.6821 65.0571 42.9637 61.1384 42.9637H56.424L57.7599 35.9812C57.8015 35.714 57.7599 35.4409 57.5818 35.2212C57.4037 34.9956 57.1781 34.9065 56.9109 34.9065H50.4093C49.964 34.9065 49.6078 35.2212 49.5187 35.619L46.6271 50.5281C46.3599 48.8299 45.7365 47.3931 44.6678 46.2293C42.7499 44.0384 39.7693 42.9162 35.714 42.9162H23.2037C22.7584 42.9162 22.4021 43.2309 22.3131 43.6346L16.4765 73.8981C16.4349 74.1652 16.4765 74.4384 16.6546 74.6581C16.8328 74.8837 17.0584 74.9727 17.3256 74.9727H23.8687C24.314 74.9727 24.6703 74.6581 24.7593 74.2543L26.1843 66.9571H31.0412C33.5765 66.9571 35.7615 66.6899 37.4062 66.1556C39.1459 65.5737 40.7015 64.6296 42.0849 63.3352C43.1953 62.3021 44.1334 61.1384 44.8459 59.8856L43.6881 65.9299C43.6406 66.1971 43.6881 66.4643 43.8662 66.6899C44.0443 66.9156 44.264 67.0046 44.5312 67.0046H51.0328C51.4781 67.0046 51.8343 66.6899 51.9234 66.2862L55.1296 49.7265H59.5828C61.5006 49.7265 62.0349 50.0827 62.2131 50.2609C62.3437 50.3974 62.6109 50.9318 62.3021 52.5884L59.7193 65.9774C59.6718 66.2446 59.7193 66.5118 59.8915 66.7374C60.0696 66.9571 60.2953 67.0521 60.5624 67.0521H67.2421C67.6399 66.9156 67.9962 66.6009 68.0853 66.1971ZM37.9821 54.5596C37.5843 56.6615 36.8243 58.1874 35.714 59.0365C34.5978 59.8856 32.7749 60.3368 30.3703 60.3368H27.4728L29.5687 49.5009H33.3093C36.0703 49.5009 37.1806 50.0827 37.6259 50.5756C38.2078 51.2881 38.3384 52.6774 37.9821 54.5596Z" fill="white"/>
<path d="M95.8727 46.2294C93.9608 44.0384 90.9743 42.9163 86.9249 42.9163H74.3196C73.8743 42.9163 73.518 43.2309 73.429 43.6347L67.5983 73.8566C67.5508 74.1238 67.5983 74.3909 67.7765 74.6166C67.9546 74.8363 68.1743 74.9313 68.4415 74.9313H74.9905C75.4358 74.9313 75.7921 74.6166 75.8812 74.2128L77.3062 66.9156H82.1571C84.6983 66.9156 86.8774 66.6484 88.528 66.1081C90.2618 65.5263 91.8233 64.5881 93.2008 63.2878C94.3587 62.2131 95.3383 61.0078 96.0508 59.7075C96.7633 58.4072 97.2977 56.9763 97.6124 55.4088C98.3665 51.5138 97.7905 48.4678 95.8727 46.2294ZM89.0624 54.5597C88.6587 56.6616 87.9046 58.1875 86.7883 59.0366C85.678 59.8856 83.8493 60.3369 81.4446 60.3369H78.553L80.643 49.5009H84.3837C87.1446 49.5009 88.2608 50.0828 88.7062 50.5756C89.3296 51.2881 89.4602 52.6775 89.0624 54.5597Z" fill="white"/>
<path d="M33.3094 48.6043C35.8031 48.6043 37.4538 49.0496 38.2969 49.9937C39.14 50.9318 39.3241 52.4993 38.8788 54.7377C38.4334 57.0652 37.5428 58.7693 36.2484 59.749C34.9541 60.7346 32.9947 61.2274 30.3703 61.2274H26.41L28.8563 48.6043H33.3094ZM17.3672 74.0346H23.9163L25.4719 66.019H31.0828C33.5766 66.019 35.5834 65.7518 37.1806 65.2115C38.7838 64.6771 40.2147 63.8281 41.5506 62.5752C42.6609 61.5421 43.5516 60.4259 44.2225 59.2146C44.8875 58.0034 45.3744 56.6615 45.6416 55.1831C46.3541 51.6027 45.8197 48.8299 44.0859 46.8112C42.3463 44.7984 39.5913 43.8127 35.8031 43.8127H23.2038L17.3672 74.0346Z" fill="#D3DCE6"/>
<path d="M50.451 35.8031H56.9525L55.3969 43.8128H61.186C64.8375 43.8128 67.3313 44.4422 68.7088 45.7365C70.0922 47.0368 70.49 49.0972 69.9557 51.965L67.2422 66.019H60.6516L63.2344 52.6359C63.5432 51.11 63.4125 50.0828 62.9197 49.5425C62.4329 49.0081 61.3166 48.6934 59.6719 48.6934H54.4588L51.1219 66.019H44.6204L50.451 35.8031Z" fill="#D3DCE6"/>
<path d="M84.3838 48.6043C86.8776 48.6043 88.5282 49.0496 89.3713 49.9937C90.2204 50.9318 90.3985 52.4993 89.9532 54.7377C89.5079 57.0652 88.6173 58.7693 87.3229 59.749C86.0345 60.7346 84.0751 61.2274 81.4507 61.2274H77.4845L79.9367 48.6043H84.3898H84.3838ZM68.4417 74.0346H74.9907L76.5463 66.019H82.1573C84.657 66.019 86.6579 65.7518 88.261 65.2115C89.8642 64.6771 91.2892 63.8281 92.6251 62.5752C93.7354 61.5421 94.626 60.4259 95.297 59.2146C95.962 58.0034 96.4548 56.6615 96.722 55.1831C97.4345 51.6027 96.9001 48.8299 95.1604 46.8112C93.4267 44.7984 90.6657 43.8127 86.8776 43.8127H74.2782L68.4417 74.0346Z" fill="#D3DCE6"/>
</g>
<defs>
<radialGradient id="paint0_radial_53342_30920" cx="0" cy="0" r="1" gradientUnits="userSpaceOnUse" gradientTransform="translate(34.2229 37.6218) scale(74.8556 75.2549)">
<stop stop-color="white"/>
<stop offset="0.0078125" stop-color="#FEFEFF"/>
<stop offset="0.0117188" stop-color="#FEFEFE"/>
<stop offset="0.015625" stop-color="#FDFEFE"/>
<stop offset="0.0195312" stop-color="#FDFDFE"/>
<stop offset="0.0234375" stop-color="#FDFDFE"/>
<stop offset="0.0273438" stop-color="#FCFDFE"/>
<stop offset="0.03125" stop-color="#FCFDFD"/>
<stop offset="0.0351562" stop-color="#FCFCFD"/>
<stop offset="0.0390625" stop-color="#FBFCFD"/>
<stop offset="0.0429688" stop-color="#FBFCFD"/>
<stop offset="0.046875" stop-color="#FBFCFD"/>
<stop offset="0.0507812" stop-color="#FAFBFC"/>
<stop offset="0.0546875" stop-color="#FAFBFC"/>
<stop offset="0.0585938" stop-color="#FAFBFC"/>
<stop offset="0.0625" stop-color="#F9FAFC"/>
<stop offset="0.0664062" stop-color="#F9FAFC"/>
<stop offset="0.0703125" stop-color="#F9FAFB"/>
<stop offset="0.0742188" stop-color="#F8FAFB"/>
<stop offset="0.078125" stop-color="#F8F9FB"/>
<stop offset="0.0820312" stop-color="#F8F9FB"/>
<stop offset="0.0859375" stop-color="#F7F9FB"/>
<stop offset="0.0898438" stop-color="#F7F9FA"/>
<stop offset="0.09375" stop-color="#F7F8FA"/>
<stop offset="0.0976562" stop-color="#F6F8FA"/>
<stop offset="0.101562" stop-color="#F6F8FA"/>
<stop offset="0.105469" stop-color="#F6F7FA"/>
<stop offset="0.109375" stop-color="#F5F7F9"/>
<stop offset="0.113281" stop-color="#F5F7F9"/>
<stop offset="0.117188" stop-color="#F4F7F9"/>
<stop offset="0.121094" stop-color="#F4F6F9"/>
<stop offset="0.125" stop-color="#F4F6F9"/>
<stop offset="0.128906" stop-color="#F3F6F8"/>
<stop offset="0.132812" stop-color="#F3F6F8"/>
<stop offset="0.136719" stop-color="#F3F5F8"/>
<stop offset="0.140625" stop-color="#F2F5F8"/>
<stop offset="0.144531" stop-color="#F2F5F8"/>
<stop offset="0.148438" stop-color="#F2F4F7"/>
<stop offset="0.152344" stop-color="#F1F4F7"/>
<stop offset="0.15625" stop-color="#F1F4F7"/>
<stop offset="0.160156" stop-color="#F1F4F7"/>
<stop offset="0.164062" stop-color="#F0F3F7"/>
<stop offset="0.167969" stop-color="#F0F3F7"/>
<stop offset="0.171875" stop-color="#F0F3F6"/>
<stop offset="0.175781" stop-color="#EFF3F6"/>
<stop offset="0.179688" stop-color="#EFF2F6"/>
<stop offset="0.183594" stop-color="#EFF2F6"/>
<stop offset="0.1875" stop-color="#EEF2F6"/>
<stop offset="0.191406" stop-color="#EEF1F5"/>
<stop offset="0.195312" stop-color="#EEF1F5"/>
<stop offset="0.199219" stop-color="#EDF1F5"/>
<stop offset="0.203125" stop-color="#EDF1F5"/>
<stop offset="0.207031" stop-color="#EDF0F5"/>
<stop offset="0.210938" stop-color="#ECF0F4"/>
<stop offset="0.214844" stop-color="#ECF0F4"/>
<stop offset="0.21875" stop-color="#ECF0F4"/>
<stop offset="0.222656" stop-color="#EBEFF4"/>
<stop offset="0.226562" stop-color="#EBEFF4"/>
<stop offset="0.230469" stop-color="#EAEFF3"/>
<stop offset="0.234375" stop-color="#EAEEF3"/>
<stop offset="0.238281" stop-color="#EAEEF3"/>
<stop offset="0.242188" stop-color="#E9EEF3"/>
<stop offset="0.246094" stop-color="#E9EEF3"/>
<stop offset="0.25" stop-color="#E9EDF2"/>
<stop offset="0.253906" stop-color="#E8EDF2"/>
<stop offset="0.261719" stop-color="#E8ECF2"/>
<stop offset="0.269531" stop-color="#E7ECF1"/>
<stop offset="0.277344" stop-color="#E6EBF1"/>
<stop offset="0.285156" stop-color="#E5EBF1"/>
<stop offset="0.292969" stop-color="#E5EAF0"/>
<stop offset="0.300781" stop-color="#E4EAF0"/>
<stop offset="0.308594" stop-color="#E3E9EF"/>
<stop offset="0.316406" stop-color="#E3E9EF"/>
<stop offset="0.324219" stop-color="#E2E8EF"/>
<stop offset="0.332031" stop-color="#E1E8EE"/>
<stop offset="0.339844" stop-color="#E1E7EE"/>
<stop offset="0.347656" stop-color="#E0E6ED"/>
<stop offset="0.355469" stop-color="#DFE6ED"/>
<stop offset="0.363281" stop-color="#DFE5ED"/>
<stop offset="0.371094" stop-color="#DEE5EC"/>
<stop offset="0.378906" stop-color="#DDE4EC"/>
<stop offset="0.386719" stop-color="#DDE4EB"/>
<stop offset="0.394531" stop-color="#DCE3EB"/>
<stop offset="0.402344" stop-color="#DBE3EB"/>
<stop offset="0.410156" stop-color="#DAE2EA"/>
<stop offset="0.417969" stop-color="#DAE2EA"/>
<stop offset="0.425781" stop-color="#D9E1EA"/>
<stop offset="0.433594" stop-color="#D8E0E9"/>
<stop offset="0.441406" stop-color="#D8E0E9"/>
<stop offset="0.449219" stop-color="#D7DFE8"/>
<stop offset="0.457031" stop-color="#D6DFE8"/>
<stop offset="0.464844" stop-color="#D6DEE8"/>
<stop offset="0.472656" stop-color="#D5DEE7"/>
<stop offset="0.480469" stop-color="#D4DDE7"/>
<stop offset="0.488281" stop-color="#D4DDE6"/>
<stop offset="0.496094" stop-color="#D3DCE6"/>
<stop offset="0.5" stop-color="#D2DBE5"/>
<stop offset="0.503906" stop-color="#D1DAE4"/>
<stop offset="0.507812" stop-color="#CFD8E2"/>
<stop offset="0.511719" stop-color="#CED7E1"/>
<stop offset="0.515625" stop-color="#CDD5DF"/>
<stop offset="0.519531" stop-color="#CBD4DD"/>
<stop offset="0.523438" stop-color="#CAD2DC"/>
<stop offset="0.527344" stop-color="#C9D1DA"/>
<stop offset="0.53125" stop-color="#C7D0D9"/>
<stop offset="0.535156" stop-color="#C6CED7"/>
<stop offset="0.539062" stop-color="#C4CDD6"/>
<stop offset="0.542969" stop-color="#C3CBD4"/>
<stop offset="0.546875" stop-color="#C2CAD3"/>
<stop offset="0.550781" stop-color="#C0C8D1"/>
<stop offset="0.554688" stop-color="#BFC7D0"/>
<stop offset="0.558594" stop-color="#BEC5CE"/>
<stop offset="0.5625" stop-color="#BCC4CC"/>
<stop offset="0.566406" stop-color="#BBC2CB"/>
<stop offset="0.570312" stop-color="#B9C1C9"/>
<stop offset="0.574219" stop-color="#B8BFC8"/>
<stop offset="0.578125" stop-color="#B7BEC6"/>
<stop offset="0.582031" stop-color="#B5BCC5"/>
<stop offset="0.585938" stop-color="#B4BBC3"/>
<stop offset="0.589844" stop-color="#B3B9C2"/>
<stop offset="0.59375" stop-color="#B1B8C0"/>
<stop offset="0.597656" stop-color="#B0B6BF"/>
<stop offset="0.601562" stop-color="#AEB5BD"/>
<stop offset="0.605469" stop-color="#ADB3BB"/>
<stop offset="0.609375" stop-color="#ACB2BA"/>
<stop offset="0.613281" stop-color="#AAB1B8"/>
<stop offset="0.617188" stop-color="#A9AFB7"/>
<stop offset="0.621094" stop-color="#A8AEB5"/>
<stop offset="0.625" stop-color="#A6ACB4"/>
<stop offset="0.628906" stop-color="#A5ABB2"/>
<stop offset="0.632812" stop-color="#A3A9B1"/>
<stop offset="0.636719" stop-color="#A2A8AF"/>
<stop offset="0.640625" stop-color="#A1A6AE"/>
<stop offset="0.644531" stop-color="#9FA5AC"/>
<stop offset="0.648438" stop-color="#9EA3AA"/>
<stop offset="0.652344" stop-color="#9DA2A9"/>
<stop offset="0.65625" stop-color="#9BA0A7"/>
<stop offset="0.660156" stop-color="#9A9FA6"/>
<stop offset="0.664062" stop-color="#989DA4"/>
<stop offset="0.667969" stop-color="#979CA3"/>
<stop offset="0.671875" stop-color="#969AA1"/>
<stop offset="0.675781" stop-color="#9499A0"/>
<stop offset="0.679688" stop-color="#93979E"/>
<stop offset="0.683594" stop-color="#92969C"/>
<stop offset="0.6875" stop-color="#90949B"/>
<stop offset="0.691406" stop-color="#8F9399"/>
<stop offset="0.695312" stop-color="#8D9298"/>
<stop offset="0.699219" stop-color="#8C9096"/>
<stop offset="0.703125" stop-color="#8B8F95"/>
<stop offset="0.707031" stop-color="#898D93"/>
<stop offset="0.710938" stop-color="#888C92"/>
<stop offset="0.714844" stop-color="#878A90"/>
<stop offset="0.71875" stop-color="#85898F"/>
<stop offset="0.722656" stop-color="#84878D"/>
<stop offset="0.726562" stop-color="#82868B"/>
<stop offset="0.730469" stop-color="#81848A"/>
<stop offset="0.734375" stop-color="#808388"/>
<stop offset="0.738281" stop-color="#7E8187"/>
<stop offset="0.742188" stop-color="#7D8085"/>
<stop offset="0.746094" stop-color="#7C7E84"/>
<stop offset="0.75" stop-color="#7A7D82"/>
<stop offset="0.753906" stop-color="#797B81"/>
<stop offset="0.757812" stop-color="#777A7F"/>
<stop offset="0.761719" stop-color="#76787E"/>
<stop offset="0.765625" stop-color="#75777C"/>
<stop offset="0.769531" stop-color="#73757A"/>
<stop offset="0.773438" stop-color="#727479"/>
<stop offset="0.777344" stop-color="#717377"/>
<stop offset="0.78125" stop-color="#6F7176"/>
<stop offset="0.785156" stop-color="#6E7074"/>
<stop offset="0.789062" stop-color="#6C6E73"/>
<stop offset="0.792969" stop-color="#6B6D71"/>
<stop offset="0.796875" stop-color="#6A6B70"/>
<stop offset="0.800781" stop-color="#686A6E"/>
<stop offset="0.804688" stop-color="#67686C"/>
<stop offset="0.808594" stop-color="#66676B"/>
<stop offset="0.8125" stop-color="#646569"/>
<stop offset="0.816406" stop-color="#636468"/>
<stop offset="0.820312" stop-color="#616266"/>
<stop offset="0.824219" stop-color="#606165"/>
<stop offset="0.828125" stop-color="#5F5F63"/>
<stop offset="0.832031" stop-color="#5D5E62"/>
<stop offset="0.835938" stop-color="#5C5C60"/>
<stop offset="0.839844" stop-color="#5B5B5F"/>
<stop offset="0.84375" stop-color="#59595D"/>
<stop offset="0.847656" stop-color="#58585B"/>
<stop offset="0.851562" stop-color="#56565A"/>
<stop offset="0.855469" stop-color="#555558"/>
<stop offset="0.859375" stop-color="#545457"/>
<stop offset="0.863281" stop-color="#525255"/>
<stop offset="0.867188" stop-color="#515154"/>
<stop offset="0.871094" stop-color="#504F52"/>
<stop offset="0.875" stop-color="#4E4E51"/>
<stop offset="0.878906" stop-color="#4D4C4F"/>
<stop offset="0.882812" stop-color="#4B4B4E"/>
<stop offset="0.886719" stop-color="#4A494C"/>
<stop offset="0.890625" stop-color="#49484A"/>
<stop offset="0.894531" stop-color="#474649"/>
<stop offset="0.898438" stop-color="#464547"/>
<stop offset="0.902344" stop-color="#454346"/>
<stop offset="0.90625" stop-color="#434244"/>
<stop offset="0.910156" stop-color="#424043"/>
<stop offset="0.914062" stop-color="#403F41"/>
<stop offset="0.917969" stop-color="#3F3D40"/>
<stop offset="0.921875" stop-color="#3E3C3E"/>
<stop offset="0.925781" stop-color="#3C3A3D"/>
<stop offset="0.929688" stop-color="#3B393B"/>
<stop offset="0.933594" stop-color="#3A3739"/>
<stop offset="0.9375" stop-color="#383638"/>
<stop offset="0.941406" stop-color="#373536"/>
<stop offset="0.945312" stop-color="#353335"/>
<stop offset="0.949219" stop-color="#343233"/>
<stop offset="0.953125" stop-color="#333032"/>
<stop offset="0.957031" stop-color="#312F30"/>
<stop offset="0.960938" stop-color="#302D2F"/>
<stop offset="0.964844" stop-color="#2F2C2D"/>
<stop offset="0.96875" stop-color="#2D2A2B"/>
<stop offset="0.972656" stop-color="#2C292A"/>
<stop offset="0.976562" stop-color="#2A2728"/>
<stop offset="0.980469" stop-color="#292627"/>
<stop offset="0.984375" stop-color="#282425"/>
<stop offset="0.988281" stop-color="#262324"/>
<stop offset="0.992188" stop-color="#252122"/>
<stop offset="0.996094" stop-color="#242021"/>
<stop offset="1" stop-color="#231F20"/>
</radialGradient>
<clipPath id="clip0_53342_30920">
<rect width="114" height="114" fill="white"/>
</clipPath>
</defs>
</svg>
