<svg width="1381" height="430" viewBox="0 0 1381 430" fill="none" xmlns="http://www.w3.org/2000/svg">
<path d="M227.668 237.785H246.418C245.441 246.77 242.87 254.81 238.703 261.906C234.536 269.003 228.645 274.634 221.027 278.801C213.41 282.902 203.905 284.953 192.512 284.953C184.178 284.953 176.594 283.391 169.758 280.266C162.987 277.141 157.16 272.714 152.277 266.984C147.395 261.19 143.618 254.257 140.949 246.184C138.345 238.046 137.043 228.996 137.043 219.035V204.875C137.043 194.914 138.345 185.897 140.949 177.824C143.618 169.686 147.427 162.72 152.375 156.926C157.388 151.132 163.41 146.672 170.441 143.547C177.473 140.422 185.383 138.859 194.172 138.859C204.914 138.859 213.996 140.878 221.418 144.914C228.84 148.951 234.602 154.549 238.703 161.711C242.87 168.807 245.441 177.043 246.418 186.418H227.668C226.757 179.777 225.064 174.081 222.59 169.328C220.116 164.51 216.6 160.799 212.043 158.195C207.486 155.591 201.529 154.289 194.172 154.289C187.857 154.289 182.29 155.493 177.473 157.902C172.72 160.311 168.716 163.729 165.461 168.156C162.271 172.583 159.862 177.889 158.234 184.074C156.607 190.259 155.793 197.128 155.793 204.68V219.035C155.793 226.001 156.509 232.544 157.941 238.664C159.439 244.784 161.685 250.155 164.68 254.777C167.674 259.4 171.483 263.046 176.105 265.715C180.728 268.319 186.197 269.621 192.512 269.621C200.52 269.621 206.9 268.352 211.652 265.812C216.405 263.273 219.986 259.628 222.395 254.875C224.868 250.122 226.626 244.426 227.668 237.785ZM269.66 273.43C269.66 270.37 270.604 267.798 272.492 265.715C274.445 263.566 277.245 262.492 280.891 262.492C284.536 262.492 287.303 263.566 289.191 265.715C291.145 267.798 292.121 270.37 292.121 273.43C292.121 276.424 291.145 278.964 289.191 281.047C287.303 283.13 284.536 284.172 280.891 284.172C277.245 284.172 274.445 283.13 272.492 281.047C270.604 278.964 269.66 276.424 269.66 273.43ZM375.52 216.496H339.484L339.289 201.359H372.004C377.408 201.359 382.128 200.448 386.164 198.625C390.201 196.802 393.326 194.198 395.539 190.812C397.818 187.362 398.957 183.26 398.957 178.508C398.957 173.299 397.948 169.068 395.93 165.812C393.977 162.492 390.949 160.083 386.848 158.586C382.811 157.023 377.668 156.242 371.418 156.242H343.684V283H324.836V140.812H371.418C378.71 140.812 385.22 141.561 390.949 143.059C396.678 144.491 401.529 146.77 405.5 149.895C409.536 152.954 412.596 156.861 414.68 161.613C416.763 166.366 417.805 172.062 417.805 178.703C417.805 184.562 416.307 189.868 413.312 194.621C410.318 199.309 406.151 203.15 400.812 206.145C395.539 209.139 389.354 211.06 382.258 211.906L375.52 216.496ZM374.641 283H332.062L342.707 267.668H374.641C380.63 267.668 385.708 266.626 389.875 264.543C394.107 262.46 397.329 259.53 399.543 255.754C401.757 251.913 402.863 247.388 402.863 242.18C402.863 236.906 401.919 232.349 400.031 228.508C398.143 224.667 395.181 221.704 391.145 219.621C387.108 217.538 381.9 216.496 375.52 216.496H348.664L348.859 201.359H385.578L389.582 206.828C396.418 207.414 402.212 209.367 406.965 212.688C411.717 215.943 415.331 220.109 417.805 225.188C420.344 230.266 421.613 235.865 421.613 241.984C421.613 250.839 419.66 258.326 415.754 264.445C411.913 270.5 406.477 275.122 399.445 278.312C392.414 281.438 384.146 283 374.641 283ZM447.004 273.43C447.004 270.37 447.948 267.798 449.836 265.715C451.789 263.566 454.589 262.492 458.234 262.492C461.88 262.492 464.647 263.566 466.535 265.715C468.488 267.798 469.465 270.37 469.465 273.43C469.465 276.424 468.488 278.964 466.535 281.047C464.647 283.13 461.88 284.172 458.234 284.172C454.589 284.172 451.789 283.13 449.836 281.047C447.948 278.964 447.004 276.424 447.004 273.43Z" fill="black"/>
<path d="M587.271 221.893H596.646C596.158 226.385 594.872 230.405 592.789 233.953C590.706 237.501 587.76 240.317 583.951 242.4C580.143 244.451 575.39 245.477 569.693 245.477C565.527 245.477 561.734 244.695 558.316 243.133C554.931 241.57 552.018 239.357 549.576 236.492C547.135 233.595 545.247 230.128 543.912 226.092C542.61 222.023 541.959 217.498 541.959 212.518V205.438C541.959 200.457 542.61 195.949 543.912 191.912C545.247 187.843 547.151 184.36 549.625 181.463C552.132 178.566 555.143 176.336 558.658 174.773C562.174 173.211 566.129 172.43 570.523 172.43C575.895 172.43 580.436 173.439 584.146 175.457C587.857 177.475 590.738 180.275 592.789 183.855C594.872 187.404 596.158 191.521 596.646 196.209H587.271C586.816 192.889 585.969 190.04 584.732 187.664C583.495 185.255 581.738 183.4 579.459 182.098C577.18 180.796 574.202 180.145 570.523 180.145C567.366 180.145 564.583 180.747 562.174 181.951C559.798 183.156 557.796 184.865 556.168 187.078C554.573 189.292 553.368 191.945 552.555 195.037C551.741 198.13 551.334 201.564 551.334 205.34V212.518C551.334 216.001 551.692 219.272 552.408 222.332C553.157 225.392 554.28 228.077 555.777 230.389C557.275 232.7 559.179 234.523 561.49 235.857C563.801 237.16 566.536 237.811 569.693 237.811C573.697 237.811 576.887 237.176 579.264 235.906C581.64 234.637 583.43 232.814 584.635 230.438C585.872 228.061 586.751 225.213 587.271 221.893ZM605.729 218.67V217.547C605.729 213.738 606.282 210.206 607.389 206.951C608.495 203.663 610.09 200.815 612.174 198.406C614.257 195.965 616.78 194.077 619.742 192.742C622.704 191.375 626.025 190.691 629.703 190.691C633.414 190.691 636.751 191.375 639.713 192.742C642.708 194.077 645.247 195.965 647.33 198.406C649.446 200.815 651.057 203.663 652.164 206.951C653.271 210.206 653.824 213.738 653.824 217.547V218.67C653.824 222.479 653.271 226.01 652.164 229.266C651.057 232.521 649.446 235.369 647.33 237.811C645.247 240.219 642.724 242.107 639.762 243.475C636.832 244.809 633.512 245.477 629.801 245.477C626.09 245.477 622.753 244.809 619.791 243.475C616.829 242.107 614.29 240.219 612.174 237.811C610.09 235.369 608.495 232.521 607.389 229.266C606.282 226.01 605.729 222.479 605.729 218.67ZM614.762 217.547V218.67C614.762 221.307 615.071 223.797 615.689 226.141C616.308 228.452 617.236 230.503 618.473 232.293C619.742 234.083 621.321 235.499 623.209 236.541C625.097 237.55 627.294 238.055 629.801 238.055C632.275 238.055 634.439 237.55 636.295 236.541C638.183 235.499 639.745 234.083 640.982 232.293C642.219 230.503 643.147 228.452 643.766 226.141C644.417 223.797 644.742 221.307 644.742 218.67V217.547C644.742 214.943 644.417 212.485 643.766 210.174C643.147 207.83 642.203 205.763 640.934 203.973C639.697 202.15 638.134 200.717 636.246 199.676C634.391 198.634 632.21 198.113 629.703 198.113C627.229 198.113 625.048 198.634 623.16 199.676C621.305 200.717 619.742 202.15 618.473 203.973C617.236 205.763 616.308 207.83 615.689 210.174C615.071 212.485 614.762 214.943 614.762 217.547ZM674.186 202.947V244.5H665.152V191.668H673.697L674.186 202.947ZM672.037 216.082L668.277 215.936C668.31 212.322 668.847 208.986 669.889 205.926C670.93 202.833 672.395 200.148 674.283 197.869C676.171 195.59 678.417 193.833 681.021 192.596C683.658 191.326 686.572 190.691 689.762 190.691C692.366 190.691 694.71 191.049 696.793 191.766C698.876 192.449 700.65 193.556 702.115 195.086C703.613 196.616 704.752 198.602 705.533 201.043C706.314 203.452 706.705 206.398 706.705 209.881V244.5H697.623V209.783C697.623 207.016 697.216 204.803 696.402 203.143C695.589 201.45 694.4 200.229 692.838 199.48C691.275 198.699 689.355 198.309 687.076 198.309C684.83 198.309 682.779 198.781 680.924 199.725C679.101 200.669 677.522 201.971 676.188 203.631C674.885 205.291 673.86 207.195 673.111 209.344C672.395 211.46 672.037 213.706 672.037 216.082ZM729.459 202.947V244.5H720.426V191.668H728.971L729.459 202.947ZM727.311 216.082L723.551 215.936C723.583 212.322 724.12 208.986 725.162 205.926C726.204 202.833 727.669 200.148 729.557 197.869C731.445 195.59 733.691 193.833 736.295 192.596C738.932 191.326 741.845 190.691 745.035 190.691C747.639 190.691 749.983 191.049 752.066 191.766C754.15 192.449 755.924 193.556 757.389 195.086C758.886 196.616 760.025 198.602 760.807 201.043C761.588 203.452 761.979 206.398 761.979 209.881V244.5H752.896V209.783C752.896 207.016 752.49 204.803 751.676 203.143C750.862 201.45 749.674 200.229 748.111 199.48C746.549 198.699 744.628 198.309 742.35 198.309C740.104 198.309 738.053 198.781 736.197 199.725C734.374 200.669 732.796 201.971 731.461 203.631C730.159 205.291 729.133 207.195 728.385 209.344C727.669 211.46 727.311 213.706 727.311 216.082ZM797.623 245.477C793.945 245.477 790.608 244.858 787.613 243.621C784.651 242.352 782.096 240.577 779.947 238.299C777.831 236.02 776.204 233.318 775.064 230.193C773.925 227.068 773.355 223.65 773.355 219.939V217.889C773.355 213.592 773.99 209.767 775.26 206.414C776.529 203.029 778.255 200.164 780.436 197.82C782.617 195.477 785.09 193.702 787.857 192.498C790.624 191.294 793.489 190.691 796.451 190.691C800.227 190.691 803.482 191.342 806.217 192.645C808.984 193.947 811.246 195.77 813.004 198.113C814.762 200.424 816.064 203.159 816.91 206.316C817.757 209.441 818.18 212.859 818.18 216.57V220.623H778.727V213.25H809.146V212.566C809.016 210.223 808.528 207.944 807.682 205.73C806.868 203.517 805.566 201.694 803.775 200.262C801.985 198.829 799.544 198.113 796.451 198.113C794.4 198.113 792.512 198.553 790.787 199.432C789.062 200.278 787.581 201.548 786.344 203.24C785.107 204.933 784.146 207 783.463 209.441C782.779 211.883 782.438 214.699 782.438 217.889V219.939C782.438 222.446 782.779 224.806 783.463 227.02C784.179 229.201 785.204 231.121 786.539 232.781C787.906 234.441 789.55 235.743 791.471 236.688C793.424 237.632 795.637 238.104 798.111 238.104C801.301 238.104 804.003 237.452 806.217 236.15C808.43 234.848 810.367 233.107 812.027 230.926L817.496 235.271C816.357 236.997 814.908 238.641 813.15 240.203C811.393 241.766 809.228 243.035 806.656 244.012C804.117 244.988 801.106 245.477 797.623 245.477ZM849.869 238.055C852.018 238.055 854.003 237.615 855.826 236.736C857.649 235.857 859.146 234.653 860.318 233.123C861.49 231.561 862.158 229.786 862.32 227.801H870.914C870.751 230.926 869.693 233.839 867.74 236.541C865.82 239.21 863.297 241.375 860.172 243.035C857.047 244.663 853.613 245.477 849.869 245.477C845.898 245.477 842.431 244.777 839.469 243.377C836.539 241.977 834.098 240.057 832.145 237.615C830.224 235.174 828.775 232.374 827.799 229.217C826.855 226.027 826.383 222.658 826.383 219.109V217.059C826.383 213.51 826.855 210.158 827.799 207C828.775 203.81 830.224 200.994 832.145 198.553C834.098 196.111 836.539 194.191 839.469 192.791C842.431 191.391 845.898 190.691 849.869 190.691C854.003 190.691 857.617 191.538 860.709 193.23C863.801 194.891 866.227 197.169 867.984 200.066C869.775 202.931 870.751 206.186 870.914 209.832H862.32C862.158 207.651 861.539 205.682 860.465 203.924C859.423 202.166 857.991 200.766 856.168 199.725C854.378 198.65 852.278 198.113 849.869 198.113C847.102 198.113 844.775 198.667 842.887 199.773C841.031 200.848 839.55 202.312 838.443 204.168C837.369 205.991 836.588 208.025 836.1 210.271C835.644 212.485 835.416 214.747 835.416 217.059V219.109C835.416 221.421 835.644 223.699 836.1 225.945C836.555 228.191 837.32 230.226 838.395 232.049C839.501 233.872 840.982 235.337 842.838 236.443C844.726 237.518 847.07 238.055 849.869 238.055ZM903.189 191.668V198.602H874.625V191.668H903.189ZM884.293 178.826H893.326V231.414C893.326 233.204 893.603 234.555 894.156 235.467C894.71 236.378 895.426 236.98 896.305 237.273C897.184 237.566 898.128 237.713 899.137 237.713C899.885 237.713 900.667 237.648 901.48 237.518C902.327 237.355 902.962 237.225 903.385 237.127L903.434 244.5C902.717 244.728 901.773 244.939 900.602 245.135C899.462 245.363 898.079 245.477 896.451 245.477C894.238 245.477 892.203 245.037 890.348 244.158C888.492 243.279 887.011 241.814 885.904 239.764C884.83 237.68 884.293 234.881 884.293 231.365V178.826Z" fill="black"/>
<rect x="536" y="268.5" width="371" height="10" fill="#FF0000"/>
<path d="M994.215 140.812V283H975.367V140.812H994.215ZM1026.05 273.43C1026.05 270.37 1026.99 267.798 1028.88 265.715C1030.84 263.566 1033.64 262.492 1037.28 262.492C1040.93 262.492 1043.69 263.566 1045.58 265.715C1047.54 267.798 1048.51 270.37 1048.51 273.43C1048.51 276.424 1047.54 278.964 1045.58 281.047C1043.69 283.13 1040.93 284.172 1037.28 284.172C1033.64 284.172 1030.84 283.13 1028.88 281.047C1026.99 278.964 1026.05 276.424 1026.05 273.43ZM1133.77 140.812V283H1115.21V140.812H1133.77ZM1179.47 140.812V156.242H1069.61V140.812H1179.47ZM1176.83 273.43C1176.83 270.37 1177.78 267.798 1179.66 265.715C1181.62 263.566 1184.42 262.492 1188.06 262.492C1191.71 262.492 1194.48 263.566 1196.36 265.715C1198.32 267.798 1199.29 270.37 1199.29 273.43C1199.29 276.424 1198.32 278.964 1196.36 281.047C1194.48 283.13 1191.71 284.172 1188.06 284.172C1184.42 284.172 1181.62 283.13 1179.66 281.047C1177.78 278.964 1176.83 276.424 1176.83 273.43Z" fill="black"/>
</svg>
