<svg width="114" height="114" viewBox="0 0 114 114" fill="none" xmlns="http://www.w3.org/2000/svg">
<path d="M72.1466 9.68993L73.3935 7.8315L74.6107 5.99681L77.3538 1.88212C77.6922 1.3715 77.5557 0.694621 77.0569 0.356184C76.5403 0.0177462 75.8635 0.154308 75.5191 0.658996L72.58 5.0765L71.345 6.929L70.0922 8.81118C66.1082 7.26743 61.6788 6.40056 56.9882 6.40056C52.3094 6.40056 47.8741 7.26743 43.896 8.81118L42.6432 6.929L38.4632 0.658996C38.1307 0.154308 37.4478 0.0177462 36.9372 0.350247C36.4325 0.688684 36.296 1.3715 36.6285 1.87618L39.3716 5.99681L40.5947 7.8315L41.8416 9.68993C32.496 14.0421 26.1785 22.2834 26.1785 31.7181H87.8157C87.8157 22.2893 81.4922 14.0421 72.1466 9.68993ZM43.7891 22.9187C41.9603 22.9187 40.4819 21.4402 40.4819 19.6115C40.4819 17.7887 41.9603 16.3162 43.7891 16.3162C45.6119 16.3162 47.0903 17.7887 47.0903 19.6115C47.0903 21.4402 45.6119 22.9187 43.7891 22.9187ZM70.1991 22.9187C68.3763 22.9187 66.9038 21.4402 66.9038 19.6115C66.9038 17.7887 68.3763 16.3162 70.1991 16.3162C72.0278 16.3162 73.5063 17.7887 73.5063 19.6115C73.5063 21.4402 72.0278 22.9187 70.1991 22.9187Z" fill="#D3DCE6"/>
<path d="M26.6535 36.1238H26.1785V84.5619C26.1785 88.4035 29.3016 91.5325 33.1491 91.5325H38.1782C38.0119 92.1144 37.9169 92.726 37.9169 93.3613V107.314C37.9169 110.954 40.8738 113.911 44.5194 113.911C48.165 113.911 51.1278 110.954 51.1278 107.314V93.3613C51.1278 92.7319 51.0269 92.1144 50.8666 91.5325H63.1275C62.9613 92.1144 62.8663 92.726 62.8663 93.3613V107.314C62.8663 110.954 65.8232 113.911 69.4688 113.911C73.1144 113.911 76.0713 110.954 76.0713 107.314V93.3613C76.0713 92.7319 75.9763 92.1144 75.81 91.5325H80.845C84.6866 91.5325 87.8097 88.4035 87.8097 84.5619V36.1238H26.6535Z" fill="#D3DCE6"/>
<mask id="mask0_53336_30866" style="mask-type:luminance" maskUnits="userSpaceOnUse" x="7" y="34" width="16" height="46">
<path d="M7.97998 34.96H22.8V79.04H7.97998V34.96Z" fill="white"/>
</mask>
<g mask="url(#mask0_53336_30866)">
<path d="M15.1702 36.1238C11.5186 36.1238 8.56177 39.0807 8.56177 42.7322V70.9769C8.56177 74.6225 11.5186 77.5794 15.1702 77.5794C18.8099 77.5794 21.7668 74.6225 21.7668 70.9769V42.7322C21.7727 39.0807 18.8158 36.1238 15.1702 36.1238Z" fill="#D3DCE6"/>
</g>
<mask id="mask1_53336_30866" style="mask-type:luminance" maskUnits="userSpaceOnUse" x="91" y="34" width="16" height="46">
<path d="M91.2 34.96H106.02V79.04H91.2V34.96Z" fill="white"/>
</mask>
<g mask="url(#mask1_53336_30866)">
<path d="M98.8237 36.1238C95.1721 36.1238 92.2212 39.0807 92.2212 42.7322V70.9769C92.2212 74.6225 95.1721 77.5794 98.8237 77.5794C102.463 77.5794 105.42 74.6225 105.42 70.9769V42.7322C105.42 39.0807 102.469 36.1238 98.8237 36.1238Z" fill="#D3DCE6"/>
</g>
</svg>
