<svg width="275" height="276" viewBox="0 0 275 276" fill="none" xmlns="http://www.w3.org/2000/svg">
<g clip-path="url(#clip0_53349_32147)">
<path d="M190.668 26.5104C188.031 34.603 183.765 42.1034 178.623 48.3416V48.3531C173.434 54.627 166.504 60.174 158.794 63.8519C151.718 67.2273 143.961 69.0451 136.242 68.4435L133.88 68.2593L133.569 65.9072C132.566 58.3217 133.724 50.6428 136.163 43.5366C139.001 35.2672 143.598 27.7219 148.531 22.0045L148.53 22.0036C153.635 16.0239 160.481 10.8212 167.812 7.05157C175.168 3.26899 183.068 0.903705 190.258 0.610755L192.976 0.5L193.274 3.21544C194.145 11.1571 193.086 19.0901 190.668 26.5104Z" fill="#424242"/>
<path d="M240.644 97.8539C238.038 99.4661 212.852 115.05 213.164 146.463C213.494 184.333 245.604 197.461 247.376 198.185H247.388L247.465 198.217L249.984 199.26L249.121 201.838C249.07 201.991 249.128 201.829 249.053 202.069C248.234 204.694 242.68 222.487 230.133 240.822C224.44 249.138 218.639 257.442 211.79 263.847C204.699 270.479 196.6 274.956 186.595 275.142C177.166 275.319 170.992 272.648 164.575 269.871C158.455 267.223 152.091 264.469 142.132 264.469C131.671 264.469 124.983 267.318 118.542 270.062C112.478 272.646 106.614 275.144 98.1661 275.481H98.1547C88.3995 275.843 79.9403 271.088 72.4225 264.044C65.2299 257.306 58.9283 248.482 53.1859 240.176C40.2233 221.459 28.95 194.225 25.467 166.533C22.6022 143.755 24.9968 120.617 36.0093 101.507C42.1569 90.8148 50.7491 82.0891 60.7947 76.0005C70.7944 69.9398 82.2352 66.4908 94.1441 66.3122V66.312C104.57 66.1229 114.401 70.0242 123.003 73.4379C129.091 75.8537 134.515 78.0063 138.581 78.0063C142.174 78.0063 147.469 75.9184 153.642 73.4847C164.067 69.3744 176.822 64.3464 190.308 65.6875C195.972 65.9338 207.769 67.2904 219.828 73.8258C227.511 77.9892 235.303 84.2399 241.708 93.6144L243.397 96.0865L240.874 97.7156C240.739 97.8028 240.87 97.714 240.644 97.8539Z" fill="#424242"/>
</g>
<defs>
<clipPath id="clip0_53349_32147">
<rect width="275" height="275" fill="white" transform="translate(0 0.5)"/>
</clipPath>
</defs>
</svg>
