<svg width="350" height="234" viewBox="0 0 350 234" fill="none" xmlns="http://www.w3.org/2000/svg">
<g clip-path="url(#clip0_53367_7425)">
<path d="M82.2718 207.743C82.2718 207.743 78.7179 134.496 46.7334 109.519C14.7488 84.5425 25.0154 131.532 40.4153 151.276C55.8152 171.019 78.7179 207.743 78.7179 207.743H82.2718Z" fill="#E2BFCD"/>
<path d="M43.6201 121.074C43.6201 121.074 62.5042 137.131 82.2719 207.743H79.8357C79.8357 207.743 65.4641 156.178 43.6201 121.074Z" fill="white"/>
<path d="M54.2411 123.318C54.0014 124.271 53.7798 125.226 53.5856 126.185C53.378 127.142 53.2081 128.104 53.0216 129.063C52.6771 130.986 52.3698 132.913 52.0894 134.844L52.969 134.257C51.5352 133.852 50.1082 133.422 48.6651 133.051L46.5047 132.479L44.3339 131.944C42.8837 131.599 41.4303 131.264 39.9671 130.967C38.505 130.665 37.0366 130.384 35.5502 130.17C36.9359 130.749 38.3397 131.262 39.7497 131.754C41.1581 132.25 42.5769 132.708 43.9987 133.157L46.1365 133.812L48.284 134.43C49.7131 134.852 51.1582 135.215 52.5966 135.604L53.3914 135.819L53.4761 135.018C53.6817 133.078 53.8604 131.134 54.0024 129.186C54.0592 128.21 54.1321 127.236 54.1672 126.258C54.2157 125.281 54.238 124.301 54.2411 123.318Z" fill="white"/>
<path d="M62.9458 139.883C62.7061 140.836 62.4846 141.791 62.2904 142.75C62.0828 143.707 61.9123 144.668 61.7259 145.628C61.3814 147.551 61.0741 149.478 60.7936 151.408L61.6732 150.822C60.2394 150.417 58.8124 149.986 57.3694 149.616L55.2089 149.044L53.0382 148.509C51.5879 148.163 50.1345 147.829 48.6713 147.532C47.2092 147.23 45.7408 146.949 44.2544 146.735C45.6401 147.314 47.0439 147.827 48.4539 148.318C49.8623 148.815 51.2811 149.273 52.703 149.721L54.8407 150.376L56.9882 150.995C58.4173 151.417 59.8624 151.78 61.3008 152.169L62.0957 152.384L62.1804 151.582C62.3859 149.642 62.5646 147.699 62.7061 145.751C62.763 144.775 62.8358 143.801 62.8714 142.823C62.921 141.846 62.9427 140.865 62.9458 139.883Z" fill="white"/>
<path d="M71.1362 157.517C70.7586 158.425 70.3997 159.337 70.0665 160.256C69.7205 161.172 69.4106 162.098 69.0852 163.02C68.4618 164.871 67.8741 166.732 67.3127 168.6L68.2692 168.149C66.9103 167.538 65.5623 166.903 64.1895 166.323L62.1365 165.439L60.068 164.591C58.6844 164.036 57.2961 163.491 55.8923 162.982C54.49 162.469 53.0795 161.975 51.6406 161.544C52.9261 162.321 54.2396 163.034 55.5612 163.728C56.8813 164.426 58.2175 165.089 59.5577 165.742L61.5756 166.704L63.609 167.631C64.9601 168.259 66.3365 168.831 67.7016 169.427L68.4562 169.757L68.6581 168.976C69.1467 167.087 69.6095 165.191 70.0361 163.285C70.2354 162.328 70.4508 161.376 70.63 160.413C70.8227 159.455 70.9885 158.489 71.1362 157.517Z" fill="white"/>
<path d="M9.53401 178.308C21.4688 193.387 55.4687 202.813 65.5018 205.327C67.2919 205.773 68.3207 206.001 68.3207 206.001H70.1982C70.1982 206.001 57.657 182.602 42.5541 170.458C27.4512 158.32 12.9402 151.804 6.12834 152.542C-0.682989 153.283 -4.53541 160.537 9.53401 178.308Z" fill="#E2BFCD"/>
<path d="M15.7782 162.133C34.0931 174.383 52.3976 191.766 65.5017 205.327C67.2919 205.773 68.3207 206.001 68.3207 206.001H69.8247C33.9133 167.348 15.7782 162.133 15.7782 162.133Z" fill="white"/>
<path d="M35.0222 167.045C35.6848 169.027 36.411 170.981 37.1738 172.918C37.5441 173.891 37.9475 174.85 38.3354 175.816C38.7196 176.783 39.139 177.734 39.5403 178.694L40.0439 177.762C38.1278 178.012 36.2209 178.318 34.311 178.608C32.4057 178.925 30.4983 179.23 28.5992 179.588C27.6479 179.756 26.6986 179.935 25.7514 180.128C24.8026 180.313 23.8548 180.501 22.9097 180.708C21.0168 181.106 19.1296 181.538 17.2527 182.036C19.1916 181.931 21.1206 181.761 23.0435 181.556C24.0062 181.461 24.9663 181.349 25.9259 181.232C26.8866 181.123 27.8446 181.001 28.8017 180.868C30.7183 180.623 32.6273 180.325 34.5377 180.04C36.444 179.727 38.3524 179.431 40.2526 179.078L41.129 178.915L40.7566 178.146C40.3037 177.21 39.8688 176.265 39.3983 175.337C38.9319 174.407 38.481 173.469 37.9971 172.547C37.0504 170.693 36.0686 168.854 35.0222 167.045Z" fill="white"/>
<path d="M46.2759 176.571C46.4836 177.498 46.7077 178.418 46.9582 179.329C47.1958 180.245 47.4685 181.148 47.7262 182.056L48.5608 184.759L49.4456 187.444L49.9672 186.523C48.5412 186.798 47.1101 187.043 45.6908 187.352L43.5587 187.797L41.4339 188.281C40.0198 188.615 38.6078 188.96 37.2035 189.344C35.7981 189.722 34.3974 190.122 33.0096 190.59C34.4708 190.495 35.919 190.331 37.3625 190.146C38.8071 189.965 40.244 189.747 41.6788 189.518L43.8273 189.156L45.9686 188.756C47.3982 188.501 48.8155 188.183 50.2384 187.894L51.0554 187.728L50.76 186.972L49.7312 184.339L48.6523 181.723C48.2726 180.859 47.907 179.989 47.5067 179.132C47.1193 178.27 46.7062 177.418 46.2759 176.571Z" fill="white"/>
<path d="M305.007 91.8059C305.007 91.8059 278.619 104.559 268.717 136.393C260.587 162.527 269.367 172.768 272.772 175.597C271.528 184.883 270.448 195.458 269.649 207.49L272.034 206.99C272.034 206.99 272.89 193.88 275.476 175.93C289.263 170.381 296.449 155.254 296.348 137.497C296.242 119.118 305.007 91.8059 305.007 91.8059Z" fill="#E2BFCD"/>
<path d="M282.75 146.762L284.725 145.716L286.682 144.636C287.982 143.906 289.276 143.165 290.553 142.39C291.832 141.62 293.101 140.83 294.338 139.979C292.927 140.493 291.548 141.07 290.179 141.665C288.808 142.256 287.454 142.882 286.106 143.517L284.091 144.487L282.094 145.49C281.631 145.718 281.175 145.958 280.718 146.196C282.021 141.19 283.535 135.719 285.274 129.909C285.776 129.617 286.278 129.323 286.773 129.014L288.351 128.05L289.913 127.053C290.95 126.377 291.982 125.69 292.998 124.969C294.016 124.252 295.025 123.516 296.007 122.717C294.87 123.175 293.763 123.695 292.664 124.234C291.563 124.769 290.478 125.339 289.398 125.919L287.785 126.805L286.188 127.726C286.084 127.784 285.982 127.848 285.877 127.908C288.069 120.702 290.602 113.008 293.506 105.051C293.506 105.051 288.479 112.701 283.363 128.668C282.891 127.288 282.41 125.91 281.909 124.54C281.564 123.63 281.231 122.716 280.869 121.812C280.518 120.905 280.146 120.005 279.76 119.111C279.964 120.073 280.183 121.031 280.423 121.981C280.652 122.934 280.91 123.877 281.156 124.824C281.669 126.711 282.21 128.587 282.772 130.455L282.787 130.504C281.344 135.187 279.907 140.531 278.59 146.557C278.079 145.193 277.558 143.833 277.012 142.481C276.632 141.581 276.268 140.674 275.869 139.78C275.482 138.882 275.07 137.992 274.639 137.109C274.844 138.07 275.067 139.025 275.315 139.971C275.55 140.921 275.822 141.86 276.077 142.803C276.616 144.68 277.189 146.546 277.789 148.402L278.036 149.169C277.062 153.9 276.166 159.025 275.395 164.552C274.735 163.366 274.068 162.184 273.379 161.013C272.871 160.178 272.378 159.335 271.851 158.51C271.336 157.678 270.798 156.859 270.243 156.049C270.587 156.969 270.947 157.881 271.332 158.78C271.704 159.685 272.111 160.574 272.503 161.469C273.311 163.247 274.153 165.008 275.019 166.756L275.081 166.881C274.68 169.962 274.317 173.158 274.003 176.48C274.003 176.48 274.558 173.085 275.785 167.188L276.047 167.001C277.261 166.137 278.491 165.295 279.684 164.403L281.484 163.078L283.262 161.722C284.44 160.808 285.611 159.885 286.761 158.931C287.912 157.981 289.051 157.013 290.15 155.989C288.83 156.706 287.551 157.478 286.284 158.269C285.014 159.055 283.768 159.873 282.527 160.7L280.677 161.955L278.849 163.241C277.959 163.858 277.088 164.5 276.217 165.142C277.196 160.56 278.523 154.757 280.239 148.055C281.08 147.634 281.921 147.209 282.75 146.762Z" fill="white"/>
<path d="M281.797 204.957C281.797 204.957 289.756 145.909 319.576 127.981C349.395 110.053 337.254 147.361 322.387 162.242C307.521 177.122 284.927 205.212 284.927 205.212L281.797 204.957Z" fill="#E2BFCD"/>
<path d="M321.556 137.56C321.556 137.56 303.864 149.206 281.797 204.957L283.942 205.132C283.942 205.132 300.001 164.415 321.556 137.56Z" fill="white"/>
<path d="M312.053 138.615C312.201 139.404 312.333 140.193 312.441 140.984C312.561 141.773 312.647 142.564 312.748 143.354C312.925 144.936 313.069 146.518 313.188 148.101L312.452 147.563C313.742 147.338 315.027 147.092 316.323 146.895L318.263 146.587L320.21 146.309C321.51 146.134 322.812 145.967 324.121 145.831C325.429 145.692 326.741 145.57 328.064 145.503C326.805 145.873 325.535 146.187 324.261 146.484C322.987 146.784 321.707 147.054 320.425 147.315L318.499 147.692L316.567 148.039C315.28 148.278 313.983 148.468 312.69 148.68L311.976 148.797L311.954 148.142C311.901 146.557 311.872 144.971 311.875 143.383C311.89 142.589 311.89 141.795 311.924 141.001C311.946 140.206 311.991 139.411 312.053 138.615Z" fill="white"/>
<path d="M303.294 151.402C303.442 152.191 303.574 152.98 303.681 153.77C303.801 154.56 303.888 155.35 303.989 156.141C304.165 157.722 304.309 159.305 304.429 160.888L303.693 160.349C304.982 160.125 306.267 159.878 307.563 159.682L309.504 159.373L311.451 159.095C312.751 158.92 314.053 158.753 315.362 158.618C316.67 158.478 317.982 158.356 319.305 158.289C318.046 158.659 316.776 158.973 315.502 159.27C314.229 159.571 312.948 159.841 311.666 160.101L309.74 160.478L307.808 160.825C306.521 161.065 305.224 161.255 303.931 161.466L303.217 161.584L303.195 160.929C303.142 159.343 303.113 157.757 303.116 156.169C303.13 155.375 303.13 154.582 303.163 153.787C303.186 152.993 303.232 152.198 303.294 151.402Z" fill="white"/>
<path d="M294.917 165.092C295.19 165.854 295.446 166.617 295.679 167.386C295.924 168.152 296.135 168.925 296.361 169.694C296.788 171.237 297.183 172.786 297.555 174.339L296.742 173.906C297.979 173.509 299.208 173.091 300.456 172.72L302.322 172.152L304.2 171.613C305.456 171.263 306.714 170.922 307.984 170.61C309.253 170.295 310.529 169.997 311.824 169.751C310.641 170.288 309.437 170.771 308.226 171.238C307.017 171.708 305.797 172.149 304.573 172.581L302.732 173.216L300.88 173.821C299.648 174.232 298.399 174.597 297.157 174.981L296.471 175.194L296.344 174.548C296.038 172.984 295.756 171.416 295.505 169.842C295.393 169.053 295.266 168.266 295.172 167.474C295.065 166.683 294.983 165.889 294.917 165.092Z" fill="white"/>
<path d="M338.22 195.663C325.706 205.134 297.299 205.463 288.974 205.347C287.489 205.325 286.642 205.289 286.642 205.289L285.185 204.894C285.185 204.894 299.965 188.936 314.302 182.466C328.637 175.999 341.3 173.877 346.424 175.899C351.548 177.924 352.97 184.501 338.22 195.663Z" fill="#E2BFCD"/>
<path d="M336.869 181.49C320.018 187.368 302.066 197.329 288.974 205.347C287.489 205.325 286.642 205.289 286.642 205.289L285.476 204.972C321.676 181.814 336.869 181.49 336.869 181.49Z" fill="white"/>
<path d="M320.881 181.339C319.939 182.776 318.954 184.175 317.944 185.554C317.447 186.25 316.927 186.927 316.417 187.613C315.911 188.301 315.38 188.969 314.861 189.647L314.672 188.8C316.104 189.402 317.517 190.048 318.936 190.681C320.345 191.334 321.759 191.979 323.155 192.663C323.856 192.997 324.554 193.34 325.247 193.692C325.943 194.039 326.638 194.389 327.326 194.752C328.708 195.467 330.079 196.208 331.427 197C329.946 196.508 328.486 195.966 327.039 195.398C326.313 195.12 325.593 194.828 324.874 194.533C324.152 194.244 323.435 193.945 322.722 193.638C321.288 193.039 319.872 192.401 318.452 191.771C317.041 191.12 315.624 190.483 314.226 189.802L313.582 189.488L314.037 188.955C314.59 188.306 315.132 187.647 315.697 187.008C316.26 186.367 316.812 185.717 317.386 185.085C318.52 183.812 319.679 182.557 320.881 181.339Z" fill="white"/>
<path d="M310.096 186.541C309.735 187.233 309.362 187.918 308.971 188.589C308.589 189.267 308.183 189.927 307.786 190.595L306.555 192.568L305.289 194.516L305.083 193.674C306.13 194.192 307.187 194.689 308.221 195.233L309.779 196.037L311.322 196.869C312.347 197.432 313.368 198.005 314.374 198.605C315.382 199.202 316.383 199.815 317.358 200.48C316.245 200.096 315.157 199.66 314.078 199.209C312.996 198.762 311.929 198.286 310.866 197.801L309.277 197.06L307.702 196.291C306.649 195.787 305.618 195.236 304.577 194.706L303.979 194.403L304.371 193.864L305.737 191.988L307.139 190.136C307.62 189.529 308.091 188.915 308.587 188.317C309.075 187.713 309.579 187.123 310.096 186.541Z" fill="white"/>
<path d="M157.442 39.9958L157.444 39.9749L157.445 39.9538C157.515 36.8272 160.341 34.2375 163.907 34.2375H281.684C285.25 34.2375 288.076 36.8272 288.146 39.9539L288.147 39.9745L288.149 39.9951C288.15 40.0079 288.151 40.0285 288.151 40.083V108.175C288.151 111.358 285.3 114.021 281.684 114.021H163.907C160.291 114.021 157.44 111.358 157.44 108.175V40.083C157.44 40.0279 157.441 40.0075 157.442 39.9958Z" fill="#DFDCF4" stroke="#A5A3CC"/>
<path d="M176.045 82.4612H173.036V105.589H176.045V82.4612Z" fill="#A5A3CC"/>
<path d="M252.546 48.1531V105.589H168.69V106.011H252.546H252.968V48.1531H252.546Z" fill="#A5A3CC"/>
<path d="M243.417 54.7195H240.408V105.589H243.417V54.7195Z" fill="#A5A3CC"/>
<path d="M229.942 61.6841H226.933V105.588H229.942V61.6841Z" fill="#A5A3CC"/>
<path d="M216.468 75.6582H213.459V105.589H216.468V75.6582Z" fill="#A5A3CC"/>
<path d="M202.994 68.0159H199.985V105.589H202.994V68.0159Z" fill="#A5A3CC"/>
<path d="M189.519 75.6582H186.51V105.589H189.519V75.6582Z" fill="#A5A3CC"/>
<path d="M174.806 76.0642L174.274 75.2523L201.504 57.427L214.95 67.1781L241.61 45.9348L242.215 46.694L214.977 68.397L201.475 58.6056L174.806 76.0642Z" fill="#A5A3CC"/>
<path d="M239.158 45.4054L242.057 49.089L243.941 44.6514L239.158 45.4054Z" fill="#A5A3CC"/>
<path d="M187.733 107.286H187.106V107.913H187.733V107.286Z" fill="#96B4D6"/>
<path d="M188.924 107.286H188.297V107.913H188.924V107.286Z" fill="#96B4D6"/>
<path d="M201.208 107.286H200.58V107.913H201.208V107.286Z" fill="#96B4D6"/>
<path d="M202.398 107.286H201.771V107.913H202.398V107.286Z" fill="#96B4D6"/>
<path d="M214.682 107.286H214.054V107.913H214.682V107.286Z" fill="#96B4D6"/>
<path d="M215.873 107.286H215.245V107.913H215.873V107.286Z" fill="#96B4D6"/>
<path d="M228.156 107.286H227.529V107.913H228.156V107.286Z" fill="#96B4D6"/>
<path d="M229.347 107.286H228.72V107.913H229.347V107.286Z" fill="#96B4D6"/>
<path d="M241.631 107.286H241.003V107.913H241.631V107.286Z" fill="#96B4D6"/>
<path d="M242.822 107.286H242.194V107.913H242.822V107.286Z" fill="#96B4D6"/>
<path d="M288.646 39.9425H156.945C157.022 36.5028 160.113 33.7375 163.907 33.7375H281.684C285.478 33.7375 288.568 36.5028 288.646 39.9425Z" fill="#A5A3CC"/>
<path d="M165.885 36.8402C165.885 37.5086 165.343 38.0503 164.675 38.0503C164.006 38.0503 163.465 37.5086 163.465 36.8402C163.465 36.1719 164.006 35.6301 164.675 35.6301C165.343 35.6301 165.885 36.1719 165.885 36.8402Z" fill="white"/>
<path d="M170.938 36.8402C170.938 37.5086 170.396 38.0503 169.728 38.0503C169.06 38.0503 168.518 37.5086 168.518 36.8402C168.518 36.1719 169.06 35.6301 169.728 35.6301C170.396 35.6301 170.938 36.1719 170.938 36.8402Z" fill="white"/>
<path d="M175.991 36.8402C175.991 37.5086 175.449 38.0503 174.781 38.0503C174.113 38.0503 173.571 37.5086 173.571 36.8402C173.571 36.1719 174.113 35.6301 174.781 35.6301C175.449 35.6301 175.991 36.1719 175.991 36.8402Z" fill="white"/>
<path d="M279.085 81.1563C279.085 81.1563 272.982 88.636 267.711 86.7369C265.376 85.8955 264.49 84.453 264.222 83.1107C263.893 81.4208 264.545 79.8827 264.545 79.8827L265.912 79.4669L267.255 75.9022L273.745 71.7466C274.37 71.901 275.164 72.121 275.861 72.3168C275.93 73.2816 276.032 74.4426 276.173 75.3186C276.225 75.6274 276.28 75.9022 276.342 76.1222C276.761 77.6153 279.085 81.1563 279.085 81.1563Z" fill="#EFACA5"/>
<path d="M276.173 75.3181C275.332 77.3442 272.179 83.2786 264.222 83.1102C263.893 81.4203 264.545 79.8822 264.545 79.8822L265.912 79.4664L267.255 75.9017L273.745 71.7461C274.37 71.9005 275.164 72.1205 275.861 72.3163C275.93 73.2816 276.032 74.4426 276.173 75.3181Z" fill="#D98A88"/>
<path d="M262.964 68.8188C262.701 69.8734 261.281 70.4271 259.792 70.0552C258.304 69.6839 257.31 68.5275 257.573 67.4728C257.837 66.4182 259.257 65.8645 260.746 66.2364C262.235 66.6082 263.228 67.7641 262.964 68.8188Z" fill="#D98A88"/>
<path d="M277.522 67.4502C277.266 72.7616 272.418 77.0474 267.596 77.0226C262.773 76.9978 260.029 72.6713 260.285 67.3598C260.542 62.0483 260.269 57.7874 269.254 57.7874C274.076 57.7874 277.778 62.1382 277.522 67.4502Z" fill="#EFACA5"/>
<path d="M264.422 67.4053C264.422 67.4053 263.848 68.8995 264.403 70.3812" stroke="#DD4B47" stroke-miterlimit="10" stroke-linecap="round"/>
<path d="M267.254 67.0623C267.254 67.3371 267.181 67.5602 267.092 67.5602C267.003 67.5602 266.93 67.3376 266.93 67.0623C266.93 66.7871 267.002 66.5645 267.092 66.5645C267.181 66.5645 267.254 66.7871 267.254 67.0623Z" stroke="#2C1106" stroke-miterlimit="10" stroke-linecap="round"/>
<path d="M261.746 66.5645C261.746 66.8393 261.674 67.0624 261.584 67.0624C261.495 67.0624 261.422 66.8393 261.422 66.5645C261.422 66.2898 261.495 66.0667 261.584 66.0667C261.674 66.0667 261.746 66.2898 261.746 66.5645Z" stroke="#2C1106" stroke-miterlimit="10" stroke-linecap="round"/>
<path d="M260.888 62.242C260.888 62.242 264.222 65.7613 273.297 63.1681C273.297 63.1681 273.587 66.0242 274.878 67.0618C276.168 68.0994 279.56 60.9307 274.878 59.7918C270.195 58.6535 266.513 58.7227 265.957 58.7919C265.402 58.8611 264.219 59.0001 263.526 59.2779C262.832 59.5558 260.477 61.4032 260.477 61.4032L260.888 62.242Z" fill="#D98A88"/>
<path d="M259.776 60.2511C259.776 60.2511 258.587 65.8539 260.269 68.146C260.269 68.146 260.702 63.4925 261.443 61.1312C262.184 58.7693 259.776 60.2511 259.776 60.2511Z" fill="#2C1106"/>
<path d="M278.854 69.0065L276.096 69.9723C276.096 69.9723 274.257 67.0903 274.118 62.2302C274.118 62.2302 267.104 64.4563 262.244 62.3697C260.798 61.7499 259.816 61.0062 259.192 60.2056C259.171 60.1798 259.15 60.1488 259.13 60.123C257.714 58.2379 258.226 56.0273 259.362 54.2765C261.583 50.847 273.142 49.0807 276.742 55.7123C276.803 55.8259 276.86 55.9395 276.917 56.0531C277.175 56.58 277.382 57.1584 277.532 57.7885C277.532 57.7885 283.254 59.7873 278.854 69.0065Z" fill="#2C1106"/>
<path d="M276.742 55.7123C274.231 54.1886 268.814 51.5288 264.16 53.4501C259.961 55.1803 259.181 58.2637 259.13 60.123C257.714 58.2379 258.226 56.0273 259.362 54.2765C261.583 50.847 273.142 49.0807 276.742 55.7123Z" fill="#683518"/>
<path d="M280.313 70.1712C280.313 71.2578 279.069 72.1389 277.535 72.1389C276 72.1389 274.757 71.2578 274.757 70.1712C274.757 69.0845 276.001 68.2034 277.535 68.2034C279.069 68.2034 280.313 69.084 280.313 70.1712Z" fill="#EFACA5"/>
<path d="M260.974 64.509C260.974 64.509 262.393 63.6062 263.526 64.7869" stroke="#2C1106" stroke-miterlimit="10" stroke-linecap="round"/>
<path d="M266.659 64.8127C266.659 64.8127 268.138 63.9099 269.321 65.0906" stroke="#2C1106" stroke-miterlimit="10" stroke-linecap="round"/>
<path d="M276.627 67.7972L274.878 67.0618C274.878 67.0618 274.154 71.8748 270.124 74.041C269.994 73.3582 269.262 70.8491 265.528 70.9906C262.455 71.1068 262.15 72.4492 262.229 73.213C261.28 72.0257 260.606 70.3228 260.267 68.1469C260.267 68.1469 258.244 72.615 259.91 76.2241C261.579 79.8369 265.384 81.1555 268.897 80.1153C272.413 79.0751 276.793 74.1293 276.627 67.7972Z" fill="#2C1106"/>
<path d="M263.875 72.253C263.875 72.253 265.681 72.2995 267.811 71.8362C267.811 71.8362 267.626 73.2255 266.144 73.7807C264.662 74.3365 263.968 73.0866 263.875 72.253Z" fill="white"/>
<path d="M255.847 143.505C255.479 144.38 254.848 143.323 254.848 143.323C254.848 143.323 254.717 144.916 254.085 144.336C253.505 143.801 253.13 141.946 253.076 141.661C253.096 141.829 253.192 142.536 253.192 143.09C253.192 143.725 252.492 144.837 251.802 142.255C251.406 140.775 251.396 137.578 251.462 135.112C251.506 133.271 251.595 131.839 251.595 131.839L255.116 132.018L255.391 132.032C255.39 132.031 256.214 142.629 255.847 143.505Z" fill="#EFACA5"/>
<path d="M255.555 134.892L251.461 135.112C251.506 133.271 251.595 131.839 251.595 131.839L255.115 132.017C255.325 133.374 255.555 134.892 255.555 134.892Z" fill="#D88B87"/>
<path d="M259.251 82.9822C259.251 82.9822 259.173 83.0529 259.034 83.2063C258.151 84.182 254.831 88.4977 253.734 99.2389C252.465 111.672 250.323 131.745 250.323 131.745L255.787 133.504L259.251 82.9822Z" fill="#3B95ED"/>
<path d="M249.877 131.706L249.981 128.93L257.591 129.227L255.53 133.715L249.877 131.706Z" fill="#52ACF7"/>
<path d="M278.321 197.01L278.598 200.483H287.697L287.141 196.594L278.321 197.01Z" fill="#EFACA5"/>
<path d="M296.982 207.127H276.655C276.648 206.598 276.676 206.069 276.731 205.554C277.026 202.69 278.09 200.228 278.09 200.228L287.696 200.345C287.696 200.345 291.889 201.063 294.574 202.728C295.917 203.563 296.518 204.665 296.786 205.554C297.051 206.444 296.982 207.127 296.982 207.127Z" fill="#021C3D"/>
<path d="M296.982 207.127H276.655C276.648 206.598 276.676 206.069 276.731 205.554H296.787C297.051 206.444 296.982 207.127 296.982 207.127Z" fill="#0F43A9"/>
<path d="M265.573 197.01L265.296 200.483H256.197L256.753 196.594L265.573 197.01Z" fill="#EFACA5"/>
<path d="M246.912 207.127H267.239C267.246 206.598 267.219 206.069 267.164 205.554C266.868 202.69 265.804 200.228 265.804 200.228L256.198 200.345C256.198 200.345 252.005 201.063 249.319 202.728C247.977 203.563 247.376 204.665 247.108 205.554C246.843 206.444 246.912 207.127 246.912 207.127Z" fill="#021C3D"/>
<path d="M246.912 207.127H267.239C267.246 206.598 267.219 206.069 267.164 205.554H247.108C246.843 206.444 246.912 207.127 246.912 207.127Z" fill="#0F43A9"/>
<path d="M289.474 197.96H275.954L269.663 148.138L268.3 174.959L267.384 198.053L254.787 197.867L254.844 115.54L282.905 117.473L283.173 121.162L289.474 197.96Z" fill="#0F43A9"/>
<path d="M283.173 121.162C264.625 126.09 254.844 119.826 254.844 119.826V115.54L282.905 117.473L283.173 121.162Z" fill="#0D339E"/>
<path d="M269.663 148.138L268.299 174.958L268.244 174.808L263.845 135.541H268.244L269.663 148.138Z" fill="#0D339E"/>
<path d="M264.69 121.691C264.69 121.691 265.683 134.121 267.76 136.952" stroke="#0B2A84" stroke-miterlimit="10" stroke-linecap="round" stroke-linejoin="round"/>
<path d="M262.432 121.691C262.432 121.691 262.654 128.678 265.433 128.616" stroke="#0B2A84" stroke-miterlimit="10" stroke-linecap="round" stroke-linejoin="round"/>
<path d="M280.297 121.161L287.697 195.791" stroke="#0B2A84" stroke-miterlimit="10" stroke-linecap="round" stroke-linejoin="round"/>
<path d="M280.904 127.276C280.904 127.276 278.054 127.47 276.7 121.691" stroke="#0B2A84" stroke-miterlimit="10" stroke-linecap="round" stroke-linejoin="round"/>
<path d="M275.976 195.791H288.661" stroke="#0B2A84" stroke-miterlimit="10" stroke-linecap="round" stroke-linejoin="round"/>
<path d="M266.983 195.791H255.202" stroke="#0B2A84" stroke-miterlimit="10" stroke-linecap="round" stroke-linejoin="round"/>
<path d="M278.159 79.6804C278.159 79.6804 282.211 80.278 284.99 83.114C287.768 85.95 282.767 112.899 283.6 119.844C283.6 119.844 261.096 123.81 253.734 117.976C253.734 117.976 254.692 97.1896 256.782 87.488C257.388 84.6768 259.298 82.315 261.932 81.1622C262.693 80.8291 263.536 80.5037 264.422 80.2325C264.422 80.2325 263.979 84.5958 267.938 85.1164C271.897 85.6375 277.233 81.6255 278.159 79.6804Z" fill="#2D79E9"/>
<path d="M266.78 111.72L264.481 112.25C264.481 112.25 263.324 109.611 261.934 109.055C260.545 108.5 257.767 107.203 256.934 107.064C256.1 106.925 255.961 107.759 256.934 108.5C257.906 109.24 259.434 110.352 259.434 110.352C259.434 110.352 257.212 110.244 255.359 109.649C253.507 109.055 251.377 107.527 251.03 107.411C250.683 107.296 249.826 107.157 249.965 108.06C250.104 108.962 253.507 111.463 255.406 111.995C255.406 111.995 253.553 112.065 252.465 111.671C251.377 111.277 250.104 110.236 249.664 110.398C249.224 110.56 249.155 111.37 249.502 111.694C249.502 111.694 248.946 112.389 249.71 113.315C249.71 113.315 249.525 113.894 250.521 114.773C251.516 115.653 254.282 117.204 257.784 117.389C261.287 117.575 266.287 117.389 266.287 117.389L266.78 111.72Z" fill="#EFACA5"/>
<path d="M254.803 113.594C251.782 113.559 249.502 111.695 249.502 111.695" stroke="#DD4B47" stroke-width="0.75" stroke-miterlimit="10" stroke-linecap="round"/>
<path d="M249.71 113.316C249.71 113.316 251.758 115.538 255 115.538" stroke="#DD4B47" stroke-width="0.75" stroke-miterlimit="10" stroke-linecap="round"/>
<path d="M278.806 86.436C280.751 80.463 283.946 81.9215 285.335 83.519C286.724 85.1164 290.591 94.5164 290.498 112.112C290.498 112.112 290.544 114.566 289.711 115.608C288.877 116.65 283.46 117.9 279.57 117.969C275.681 118.039 265.818 117.552 265.818 117.552L266.383 111.58L278.806 108.94C278.806 108.94 276.862 92.4096 278.806 86.436Z" fill="#3B95ED"/>
<path d="M266.384 111.58L269.101 111.003L270.673 118.455L265.818 117.552L266.384 111.58Z" fill="#52ACF7"/>
<path d="M278.159 79.6804C278.159 79.6804 275.991 85.6592 270.543 87.6037L266.96 84.8834C266.96 84.8834 274.078 83.3934 278.159 79.6804Z" fill="#52ACF7"/>
<path d="M266.675 84.7676L263.471 86.7912C263.471 86.7912 261.35 82.1114 264.422 80.2324C264.422 80.2324 264.596 83.7181 266.675 84.7676Z" fill="#52ACF7"/>
<path d="M266.187 88.0685C266.549 88.0685 266.843 87.7748 266.843 87.4125C266.843 87.0503 266.549 86.7566 266.187 86.7566C265.825 86.7566 265.531 87.0503 265.531 87.4125C265.531 87.7748 265.825 88.0685 266.187 88.0685Z" fill="#52ACF7"/>
<path d="M265.843 91.4195C266.205 91.4195 266.499 91.1258 266.499 90.7636C266.499 90.4013 266.205 90.1077 265.843 90.1077C265.481 90.1077 265.187 90.4013 265.187 90.7636C265.187 91.1258 265.481 91.4195 265.843 91.4195Z" fill="#52ACF7"/>
<path d="M67.1291 172.48L61.9235 207.325H58.4176L63.7296 172.48H67.1291Z" fill="#FA8595"/>
<path d="M64.5055 170.409H61.0621L59.5374 160.209L58.9745 156.44H62.374L62.9493 160.209L64.5055 170.409Z" fill="#FA8595"/>
<path d="M80.3578 170.409H76.9186L75.3939 160.209L74.8304 156.44H78.2304L78.8053 160.209L80.3578 170.409Z" fill="#FA8595"/>
<path d="M77.327 172.48L72.122 207.325H68.6161L73.9281 172.48H77.327Z" fill="#F15771"/>
<path d="M99.4236 172.48L104.629 207.325H108.135L102.823 172.48H99.4236Z" fill="#F15771"/>
<path d="M84.8698 172.48L90.0754 207.325H93.5807L88.2692 172.48H84.8698Z" fill="#FA8595"/>
<path d="M62.374 156.44L62.9493 160.209H59.5374L58.9745 156.44H62.374Z" fill="#F15771"/>
<path d="M78.8053 160.209H75.3939L74.8304 156.44H78.2304L78.8053 160.209Z" fill="#F15771"/>
<path d="M75.1857 134.638H51.3776L55.2269 156.941H79.035L75.1857 134.638Z" fill="#F15771"/>
<path d="M77.8311 134.638H54.0229L57.8723 156.941H81.6804L77.8311 134.638Z" fill="#FA8595"/>
<path d="M104.948 173.861H58.6304C57.2225 173.861 56.0811 172.72 56.0811 171.312C56.0811 169.904 57.2225 168.763 58.6304 168.763H104.948C106.356 168.763 107.497 169.904 107.497 171.312C107.497 172.72 106.356 173.861 104.948 173.861Z" fill="#FA8595"/>
<path d="M77.78 95.2029C77.78 95.2029 74.6703 91.5659 70.9392 94.1767C67.2077 96.7875 70.7616 102.995 71.5611 106.02C72.3606 109.046 69.6067 109.787 69.6067 109.787C69.6067 109.787 76.9805 113.693 79.1125 108.326C81.2445 102.958 77.78 95.2029 77.78 95.2029Z" fill="#3A070C"/>
<path d="M82.9577 86.2726L81.337 85.4912C81.337 85.4912 76.7439 85.8388 75.3654 91.173C73.7953 97.2468 75.6511 105.427 84.0387 107.253C94.0279 109.426 98.6127 100.065 95.8805 92.003C95.6714 91.3863 95.4823 91.4875 95.4823 91.4875L82.9577 86.2726Z" fill="#58110D"/>
<path d="M88.1345 119.452C90.9978 117.89 91.4358 114.245 91.4358 114.245L90.8264 112.42C90.8264 112.42 90.7618 112.326 90.659 112.137C90.2556 111.381 89.264 109.127 89.6116 105.646C90.0454 101.306 82.5797 104.259 82.5797 104.259C82.5797 104.259 82.2704 106.191 81.8928 108.196C81.6051 109.72 81.2787 111.286 81.0169 112.072C80.4074 113.897 85.2711 121.015 88.1345 119.452Z" fill="#F4AC96"/>
<path d="M81.8928 108.196C83.1938 109.819 85.9281 112.248 90.659 112.137C90.2557 111.381 89.264 109.127 89.6116 105.646C90.0454 101.306 82.5797 104.259 82.5797 104.259C82.5797 104.259 82.2704 106.192 81.8928 108.196Z" fill="#DF776C"/>
<path d="M98.7099 99.3568C98.823 100.5 97.6475 101.551 96.0846 101.705C94.5217 101.86 93.1634 101.058 93.0508 99.9156C92.9382 98.7726 94.1132 97.7216 95.6761 97.5672C97.2384 97.4127 98.5968 98.2138 98.7099 99.3568Z" fill="#DF776C"/>
<path d="M90.0128 109.553C92.3783 109.381 95.2158 106.153 96.0959 101.464C96.2421 100.692 96.3319 99.9362 96.3665 99.2105C96.3665 99.2105 96.3665 99.2064 96.3707 99.2064C96.4306 97.9787 96.3448 96.8368 96.1258 95.8405C95.6967 93.8572 94.7561 92.4663 93.4639 92.1787C87.3591 90.8265 83.6503 91.5821 81.4521 93.3852C79.9068 94.6516 79.1084 96.4329 78.7432 98.3692C77.8636 103.057 83.9209 109.999 90.0128 109.553Z" fill="#F4AC96"/>
<path d="M80.3619 99.2105C80.8944 96.201 85.3031 95.3467 89.5573 95.261C93.8116 95.1711 94.8507 94.5658 94.8507 94.5658C95.3445 94.8493 95.7737 95.3343 96.1259 95.841C95.6967 93.8577 94.7562 92.4668 93.464 92.1792C87.3592 90.827 83.6503 91.5826 81.4522 93.3857C79.6151 96.828 80.0056 101.241 80.3619 99.2105Z" fill="#DF776C"/>
<path d="M78.6276 101.861L78.672 101.883C78.672 101.883 78.6332 101.961 78.6276 101.861Z" fill="#58110D"/>
<path d="M94.0268 93.6276C94.0155 93.6333 94.0103 93.6333 94.0103 93.6333C93.6596 93.7278 93.2759 93.7893 92.8529 93.828C86.1428 94.4064 81.3963 94.6957 80.4672 98.7464C79.8831 101.317 79.7829 102.023 79.7885 102.196L76.9954 100.833C76.9954 100.833 75.0039 97.6484 75.9547 91.1738C76.6829 86.2187 81.3354 85.493 81.3354 85.493L81.3411 85.4874C81.5079 85.3928 84.9523 83.4953 90.7162 84.5081C96.2415 85.4817 99.1793 92.292 94.0268 93.6276Z" fill="#58110D"/>
<path d="M75.7286 101.445C75.6161 102.588 76.7916 103.639 78.3544 103.793C79.9173 103.948 81.2756 103.146 81.3882 102.004C81.5008 100.861 80.3253 99.8097 78.7624 99.6553C77.2001 99.5009 75.8418 100.302 75.7286 101.445Z" fill="#F4AC96"/>
<path d="M90.6729 100.993C90.6729 100.993 91.303 102.33 90.9388 103.848" stroke="#BE494F" stroke-miterlimit="10" stroke-linecap="round"/>
<path d="M92.6464 97.5869C92.6464 97.5869 94.0786 96.4496 95.5102 97.73" stroke="#58110D" stroke-miterlimit="10" stroke-linecap="round"/>
<path d="M85.2876 97.5869C85.2876 97.5869 86.7198 96.4496 88.1515 97.73" stroke="#58110D" stroke-miterlimit="10" stroke-linecap="round"/>
<path d="M87.7749 99.7769C87.7749 100.222 87.5973 100.582 87.3778 100.582C87.1583 100.582 86.9806 100.221 86.9806 99.7769C86.9806 99.3322 87.1583 98.9717 87.3778 98.9717C87.5967 98.9717 87.7749 99.3322 87.7749 99.7769Z" fill="#282D33"/>
<path d="M94.8068 99.7769C94.8068 100.222 94.6286 100.582 94.4096 100.582C94.1906 100.582 94.0125 100.221 94.0125 99.7769C94.0125 99.3322 94.1901 98.9717 94.4096 98.9717C94.6291 98.9717 94.8068 99.3322 94.8068 99.7769Z" fill="#282D33"/>
<path d="M87.5973 105.459C88.3446 105.853 89.547 106.247 91.1192 105.968" stroke="#BE494F" stroke-miterlimit="10" stroke-linecap="round"/>
<path d="M94.027 93.6276C94.2383 93.5274 96.7422 92.2925 94.0771 88.047C91.2954 83.6239 81.3356 85.493 81.3356 85.493L81.3413 85.4874C81.5081 85.3928 84.9525 83.4953 90.7164 84.5081C96.2417 85.4817 99.1794 92.292 94.027 93.6276Z" fill="#751A17"/>
<path d="M103.278 162.427L109.332 163.375L113.958 201.05L120.36 200.53L119.399 156.711C119.335 154.85 118.064 153.25 116.265 152.767L107.117 150.311L103.278 162.427Z" fill="#DF776C"/>
<path d="M120.194 199.17L120.379 200.687C120.379 200.687 130.198 202.371 130.529 207.325H118.767L117.455 206.45L117.019 207.325H112.939C112.939 207.325 112.866 203.844 114.067 202.059L113.903 200.604L120.194 199.17Z" fill="#DF776C"/>
<path d="M130.529 207.327H118.766L117.453 206.448L117.014 207.327H112.936C112.936 207.327 112.88 205.135 113.476 203.344C114.171 203.716 116.469 204.684 120.959 204.406C124.765 204.178 126.106 203.266 126.568 202.721C128.604 203.766 130.39 205.257 130.529 207.327Z" fill="#264066"/>
<path d="M99.4354 169.5H100.817L102.922 201.178L109.333 200.686L112.936 162.683C112.991 160.674 111.593 158.916 109.622 158.517L101.83 156.941L99.4354 169.5Z" fill="#F4AC96"/>
<path d="M119.484 207.327H107.722L106.409 206.448L105.969 207.327H101.891C101.891 207.327 101.835 205.135 102.431 203.344C102.581 202.898 102.77 202.47 103.009 202.114L102.887 200.623L109.486 199.093L109.33 200.684C109.33 200.684 112.674 201.258 115.522 202.721C117.559 203.766 119.345 205.257 119.484 207.327Z" fill="#F4AC96"/>
<path d="M119.484 207.328H107.722L106.409 206.449L105.969 207.328H101.891C101.891 207.328 101.835 205.135 102.431 203.344C103.126 203.717 105.424 204.685 109.914 204.407C113.72 204.179 115.061 203.266 115.523 202.721C117.559 203.767 119.345 205.258 119.484 207.328Z" fill="#2E4A79"/>
<path d="M95.6657 115.437C95.6657 115.437 97.7378 116.819 99.2919 121.653C100.846 126.488 102.918 130.805 103.695 131.236C104.472 131.668 113.93 121.81 113.93 121.81L116.258 125.847C116.258 125.847 111.81 133.912 107.839 138.056C103.868 142.201 102.659 141.855 101.537 141.423C100.415 140.992 95.1512 135.68 95.1512 135.68L95.6657 115.437Z" fill="#F4AC96"/>
<path d="M114.066 122.341C113.787 121.895 113.7 121.357 113.823 120.845C114.168 119.411 114.929 116.413 115.626 114.808C116.563 112.65 117.084 112.56 117.334 112.586C117.585 112.612 118.13 113.016 116.419 117.156C116.419 117.156 117.662 115.959 118.259 117.352C118.259 117.352 119.425 117.092 119.717 118.457C119.717 118.457 121.091 119.305 120.764 120.962C120.437 122.619 119.406 121.703 119.406 121.703C119.406 121.703 119.929 123.608 118.262 124.748C116.596 125.889 116.258 125.847 116.258 125.847L114.066 122.341Z" fill="#F4AC96"/>
<path d="M114.373 121.107C114.373 121.107 116.285 118.491 116.957 118.103C117.629 117.715 117.759 118.298 117.27 119.346C116.781 120.394 116.75 120.787 116.75 120.787C116.75 120.787 117.653 122.615 116.317 123.966" stroke="#BE494F" stroke-width="0.5" stroke-miterlimit="10" stroke-linecap="round"/>
<path d="M118.458 117.693C118.458 117.693 118.517 120.036 117.822 120.773C117.127 121.51 116.87 120.594 116.895 120.252" stroke="#BE494F" stroke-width="0.5" stroke-miterlimit="10" stroke-linecap="round"/>
<path d="M119.694 118.621C119.694 118.621 119.67 120.599 119.017 121.092C118.363 121.586 117.919 120.904 117.977 120.56" stroke="#BE494F" stroke-width="0.5" stroke-miterlimit="10" stroke-linecap="round"/>
<path d="M98.3757 127.041C97.9449 120.741 96.5577 117.067 96.099 116C96.0593 115.852 96.0097 115.737 95.9472 115.664C94.6885 114.188 90.8697 112.489 90.8697 112.489C90.3594 114.942 88.0807 117.33 88.0807 117.33C84.7814 116.505 81.008 111.448 81.008 111.448C81.008 111.448 74.3625 113.032 72.6261 114.79C70.8897 116.547 70.4703 143.955 76.3272 146.039C82.184 148.123 95.5851 146.389 95.5851 146.389C95.5851 143.35 94.89 139.676 94.9561 136.227C94.9581 136.131 94.9607 136.033 94.9628 135.937C97.4548 134.92 98.8095 133.381 98.3757 127.041Z" fill="#0F43A9"/>
<path d="M88.0812 117.33C88.0812 117.33 86.1713 119.336 82.6979 119.744C79.2251 120.152 79.5144 111.831 80.1512 111.448C80.788 111.064 81.289 111.334 81.289 111.334C81.289 111.334 83.6095 114.639 88.0812 117.33Z" fill="#2D79E9"/>
<path d="M88.0812 117.33C88.0812 117.33 90.2055 118.559 92.4511 118.907C94.6968 119.255 92.1609 112.99 91.7492 112.663C91.3376 112.336 90.8438 112.416 90.8438 112.416C90.8438 112.416 90.2798 114.583 88.0812 117.33Z" fill="#2D79E9"/>
<path d="M72.5838 138.011C72.5838 138.011 72.0343 144.545 70.6837 147.808C69.3331 151.071 66.493 165.969 74.7778 168.311C83.0621 170.652 101.007 169.788 101.007 169.788C101.007 169.788 102.752 155.423 113.682 152.581C114.306 152.418 114.302 151.531 113.679 151.367L95.7324 146.661L93.4387 139.23L72.5838 138.011Z" fill="#0F43A9"/>
<path d="M89.2201 119.886C89.2201 120.257 88.9195 120.557 88.5492 120.557C88.1789 120.557 87.8783 120.257 87.8783 119.886C87.8783 119.516 88.1784 119.216 88.5492 119.216C88.92 119.216 89.2201 119.516 89.2201 119.886Z" fill="#2D79E9"/>
<path d="M89.2201 122.568C89.2201 122.939 88.9195 123.239 88.5492 123.239C88.1789 123.239 87.8783 122.939 87.8783 122.568C87.8783 122.198 88.1784 121.897 88.5492 121.897C88.92 121.897 89.2201 122.198 89.2201 122.568Z" fill="#2D79E9"/>
<path d="M84.236 146.318V146.323C84.1358 146.323 84.0077 146.318 83.8688 146.318L80.0406 146.034C77.5037 145.811 74.7106 145.522 74.0262 145.422C72.8466 145.255 65.4966 144.359 64.9904 142.896C64.4895 141.438 65.2187 134.934 66.843 127.807C68.4731 120.679 70.8266 116.25 71.8395 115.126C72.8466 114.002 75.3727 113.89 76.9418 117.763C78.5165 121.636 76.229 127.895 74.8826 130.644C73.5361 133.392 72.1819 138.427 72.1819 138.427L82.2507 141.722L82.5843 141.828L84.236 146.318Z" fill="#F4AC96"/>
<path d="M94.8755 142.95C94.2573 142.919 93.9887 142.296 93.2187 141.45C92.4486 140.609 91.2426 140.655 91.2426 140.655C91.2426 140.655 92.1898 140.908 93.0715 142.068C93.9531 143.233 94.5104 145.529 93.9784 145.518C93.4516 145.508 92.7776 144.566 92.7776 144.566C92.9196 145.042 92.8943 146.218 92.337 146.162C91.7798 146.106 91.3945 145.381 91.3945 145.381C91.521 145.919 91.207 146.876 90.5686 146.354C89.9302 145.828 88.8157 144.151 88.8157 144.151C87.2957 145.645 85.1626 146.334 85.1626 146.334H84.2252L80.7395 146.076L80.5675 141.977L83.8456 141.592L83.8812 141.587C83.8812 141.587 89.1101 138.294 91.4255 138.983C93.7408 139.672 94.5517 140.878 94.7237 141.304C94.891 141.729 95.4989 142.98 94.8755 142.95Z" fill="#F4AC96"/>
<path d="M91.194 144.731C91.194 144.731 90.6657 143.568 89.5454 142.701" stroke="#BE494F" stroke-width="0.5" stroke-miterlimit="10" stroke-linecap="round"/>
<path d="M92.8705 143.984C92.8705 143.984 92.0984 142.274 90.9781 141.407" stroke="#BE494F" stroke-width="0.5" stroke-miterlimit="10" stroke-linecap="round"/>
<path d="M198.9 121.768H167.043L163.849 141.468H195.707L198.9 121.768Z" fill="#999999"/>
<path d="M193.784 141.469H161.927V144.156H193.784V141.469Z" fill="#999999"/>
<path d="M196.978 121.768H165.121L161.927 141.468H193.785L196.978 121.768Z" fill="#B7B7B7"/>
<path d="M195.361 123.142L193.795 132.819L192.614 140.095H163.541L164.038 137.037L164.642 133.315L166.288 123.142H195.361Z" fill="#79DEE8"/>
<path d="M177.27 123.142L164.642 133.315L166.288 123.142H177.27Z" fill="#C5F8F9"/>
<path d="M186.059 123.142L164.23 140.095H163.541L164.038 137.037L181.44 123.142H186.059Z" fill="#C5F8F9"/>
<path d="M193.795 132.819L192.614 140.095H182.006L193.795 132.819Z" fill="#C5F8F9"/>
<path d="M181.375 141.469H149.518V144.156H181.375V141.469Z" fill="#A8A8A8"/>
<path d="M84.0292 207.091H87.267L87.267 146.96H84.0292L84.0292 207.091Z" fill="#E0DCF5"/>
<path d="M235.159 207.091H238.397V146.96H235.159V207.091Z" fill="#A5A3CB"/>
<path d="M72.0062 148.609L192.858 148.609V144.156L72.0062 144.156V148.609Z" fill="#E0DCF5"/>
<path d="M192.858 148.609H242.465V144.156H192.858V148.609Z" fill="#A5A3CB"/>
<path d="M198.457 207.091H201.695V146.96H198.457V207.091Z" fill="#A5A3CB"/>
<path d="M140.568 102.936C140.568 102.936 141.049 104.509 139.881 107.944C139.208 109.942 137.742 110.544 136.626 110.694C135.812 110.808 135.19 110.684 135.19 110.684L135.832 113.507L136.265 115.396L124.606 113.634L124.902 109.877C123.119 101.824 128.075 97.0847 132.316 95.1345C134.339 94.2038 136.2 93.9083 137.089 94.1898C137.577 94.3442 137.982 94.6087 138.319 94.9485C139.891 96.5042 139.995 99.54 139.995 99.54C139.995 99.54 141.598 100.113 141.715 101.223C141.835 102.332 140.568 102.936 140.568 102.936Z" fill="#FFCAC6"/>
<path d="M138.848 106.152C138.848 106.152 137.645 106.304 136.298 105.903" stroke="#DD4B47" stroke-width="0.75" stroke-miterlimit="10" stroke-linecap="round"/>
<path d="M138.157 97.0322C138.157 97.0322 137.005 96.4547 136.219 97.6447" stroke="#2C1106" stroke-miterlimit="10" stroke-linecap="round"/>
<path d="M137.837 98.6875C137.914 98.9746 137.864 99.2375 137.725 99.2747C137.586 99.3119 137.411 99.1094 137.334 98.8217C137.257 98.5346 137.308 98.2717 137.447 98.2345C137.586 98.1978 137.76 98.4003 137.837 98.6875Z" fill="#011E3C"/>
<path d="M135.19 110.684L135.833 113.506C133.104 112.686 130.591 110.014 130.591 110.014C133.134 110.477 135.19 110.684 135.19 110.684Z" fill="#F9A0A0"/>
<path d="M138.319 94.9481C136.224 96.8508 131.849 97.6441 131.849 97.6441L132.316 95.1335C134.338 94.2028 136.2 93.9074 137.089 94.1888C137.577 94.3438 137.982 94.6082 138.319 94.9481Z" fill="#F9A0A0"/>
<path d="M139.823 89.5225C139.823 89.5292 139.826 89.5396 139.823 89.5468C139.823 89.7942 139.816 90.0411 139.798 90.2853C139.802 90.289 139.802 90.289 139.798 90.289C139.792 90.3747 139.784 90.461 139.774 90.5431C139.774 90.5431 139.774 90.5431 139.774 90.5467C139.616 92.1504 139.036 93.596 137.717 94.4786C133.236 97.4629 132.538 97.4009 132.538 97.4009L132.573 100.389C132.573 100.389 130.55 99.5784 129.657 100.629C128.768 101.683 129.08 104.774 132.068 104.791C132.068 104.791 131.148 109.62 124.901 109.874C124.901 109.874 121.003 109.064 117.308 101.741C113.613 94.4198 116.158 92.1705 118.589 92.2113C118.589 92.2113 117.765 90.2606 119.585 88.9559C120.162 88.5474 121.003 88.2003 122.223 88.001C127.285 87.1803 133.906 83.1486 133.332 81.4861C133.332 81.4861 136.601 82.0733 136.972 83.8764L138.13 81.9876C138.13 81.9876 139.816 85.9232 139.823 89.5225Z" fill="#011E3C"/>
<path d="M139.823 89.5225C139.617 87.4241 137.724 84.6325 137.724 84.6325L136.219 86.3322C136.219 86.3322 135.485 83.8666 134.513 83.3098C133.541 82.7536 131.907 86.4361 126.94 88.1038C123.983 89.097 119.588 88.9591 119.588 88.9591L119.584 88.9554C120.161 88.5469 121.002 88.1998 122.222 88.0005C127.284 87.1798 133.905 83.1481 133.331 81.4856C133.331 81.4856 136.6 82.0728 136.971 83.8759L138.129 81.9871C138.13 81.9876 139.816 85.9232 139.823 89.5225Z" fill="#083A66"/>
<path d="M147.942 197.01L148.22 200.483H157.319L156.763 196.594L147.942 197.01Z" fill="#EFACA5"/>
<path d="M166.604 207.127H146.277C146.27 206.598 146.297 206.069 146.352 205.554C146.647 202.69 147.712 200.228 147.712 200.228L157.317 200.345C157.317 200.345 161.511 201.063 164.196 202.728C165.539 203.563 166.14 204.665 166.408 205.554C166.672 206.444 166.604 207.127 166.604 207.127Z" fill="#021428"/>
<path d="M166.604 207.127H146.277C146.27 206.598 146.297 206.069 146.352 205.554H166.408C166.672 206.444 166.604 207.127 166.604 207.127Z" fill="#0D3A82"/>
<path d="M159.054 162.884V198.7C153.127 200.183 146.276 199.627 146.276 199.627V167.496C149.652 166.473 155.077 164.721 159.054 162.884Z" fill="#2F5ED2"/>
<path d="M117.49 146.383C117.49 146.383 117.072 164.713 123.813 167.214C130.553 169.714 138.471 167.492 138.471 167.492L136.035 149.294L117.49 146.383Z" fill="#2F5ED2"/>
<path d="M164.114 197.01L164.392 200.483H173.491L172.935 196.593L164.114 197.01Z" fill="#EFACA5"/>
<path d="M182.776 207.127H162.449C162.442 206.598 162.469 206.069 162.524 205.554C162.819 202.69 163.884 200.228 163.884 200.228L173.489 200.344C173.489 200.344 177.683 201.062 180.368 202.728C181.711 203.562 182.312 204.665 182.58 205.554C182.844 206.443 182.776 207.127 182.776 207.127Z" fill="#021C3D"/>
<path d="M182.776 207.127H162.449C162.442 206.598 162.469 206.069 162.524 205.554H182.58C182.844 206.444 182.776 207.127 182.776 207.127Z" fill="#0F43A9"/>
<path d="M123.908 149.803C123.908 149.803 125.842 164.74 131.294 167.769C140.045 172.631 162.04 165.176 162.04 165.176V199.626C162.04 199.626 168.893 200.182 174.82 198.7V155.627C174.82 151.342 170.937 148.104 166.721 148.874L145.926 152.673L127.634 148.761" fill="#377EE8"/>
<path d="M145.602 153.457C145.602 153.457 122.689 159.553 115.446 153.46C115.446 153.46 116.865 131.746 116.813 122.356C116.799 120.33 118.238 111.893 125.09 112.147C131.965 112.404 142.818 116.186 144.308 121.883C144.621 123.064 144.854 125.108 145.033 127.611C145.235 130.358 145.366 133.662 145.452 136.973C145.483 138.195 145.51 139.418 145.531 140.617C145.647 147.468 145.602 153.457 145.602 153.457Z" fill="#C6C6C6"/>
<path d="M145.53 140.617C143.167 139.957 140.767 138.859 138.847 137.052C132.971 131.526 134.153 121.162 134.153 121.162L141.722 123.051L145.032 127.611C145.235 130.358 145.365 133.662 145.451 136.973C145.482 138.195 145.51 139.418 145.53 140.617Z" fill="#9B9B9B"/>
<path d="M172.125 116.415C172.125 116.415 164.514 134.143 162.595 134.857C161.832 135.142 159.775 135.225 157.567 135.225C154.212 135.221 150.513 135.019 150.513 135.019L152.893 123.841L155.317 124.174L159.448 124.744L167.278 113.686L172.125 116.415Z" fill="#FFCAC6"/>
<path d="M167.28 113.685C167.28 113.685 166.208 111.926 166.578 109.148C166.948 106.37 168.372 105.988 168.372 105.988C168.372 105.988 169.31 101.647 170.93 99.7948C172.551 97.9427 172.007 101.138 171.775 101.647C171.544 102.156 170.872 104.46 170.872 104.46C170.872 104.46 171.571 103.807 172.401 104.287C173.182 104.738 172.922 105.676 172.922 105.676C172.922 105.676 173.2 105.074 174.079 105.629C174.959 106.185 174.587 107.022 174.587 107.022C174.587 107.022 175.468 106.556 176.07 107.389C176.672 108.223 176.996 110.353 176.395 111.001C175.793 111.649 175.144 111.232 175.144 111.232C175.144 111.232 175.218 115.901 172.125 116.415C169.032 116.927 167.28 113.685 167.28 113.685Z" fill="#FFCAC6"/>
<path d="M170.872 104.46C170.872 104.46 169.935 105.606 169.865 106.718" stroke="#DD4B47" stroke-width="0.75" stroke-miterlimit="10" stroke-linecap="round"/>
<path d="M172.921 105.676C172.921 105.676 171.827 106.353 171.607 107.846" stroke="#DD4B47" stroke-width="0.75" stroke-miterlimit="10" stroke-linecap="round"/>
<path d="M174.587 107.022C174.587 107.022 173.477 108.28 173.477 109.392" stroke="#DD4B47" stroke-width="0.75" stroke-miterlimit="10" stroke-linecap="round"/>
<path d="M175.144 111.232C175.144 111.232 174.762 110.312 174.901 109.392" stroke="#DD4B47" stroke-width="0.75" stroke-miterlimit="10" stroke-linecap="round"/>
<path d="M174.908 110.312C174.908 110.312 175.051 109.866 175.63 109.774" stroke="#DD4B47" stroke-width="0.75" stroke-miterlimit="10" stroke-linecap="round"/>
<path d="M157.567 135.225C154.212 135.221 150.513 135.019 150.513 135.019L152.893 123.841L155.318 124.174C156.19 126.196 157.815 130.64 157.567 135.225Z" fill="#F9A0A0"/>
<path d="M153.123 122.502L142.981 117.914C142.981 117.914 138.16 115.775 135.914 117.346C133.668 118.917 132.94 125.81 137.566 130.757C142.192 135.705 152.917 137.053 152.917 137.053C152.917 137.053 155.839 129.001 153.123 122.502Z" fill="#B2B2B2"/>
<path d="M117.181 170.409H113.738L112.214 160.209L111.65 156.44H115.05L115.625 160.209L117.181 170.409Z" fill="#FA8595"/>
<path d="M115.05 156.44L115.625 160.209H112.214L111.65 156.44H115.05Z" fill="#F15771"/>
<path d="M133.033 170.409H129.595L128.07 160.209L127.507 156.44H130.906L131.481 160.209L133.033 170.409Z" fill="#FA8595"/>
<path d="M131.481 160.209H128.07L127.507 156.44H130.906L131.481 160.209Z" fill="#F15771"/>
<path d="M130.206 134.638H106.398L110.248 156.941H134.056L130.206 134.638Z" fill="#F15771"/>
<path d="M126.74 134.638H102.932L106.781 156.941H130.589L126.74 134.638Z" fill="#FA8595"/>
<path d="M119.805 172.48L114.6 207.325H111.094L116.406 172.48H119.805Z" fill="#FA8595"/>
<path d="M130.003 172.48L124.798 207.325H121.292L126.604 172.48H130.003Z" fill="#F15771"/>
<path d="M152.1 172.48L157.305 207.325H160.811L155.499 172.48H152.1Z" fill="#F15771"/>
<path d="M137.546 172.48L142.751 207.325H146.257L140.945 172.48H137.546Z" fill="#FA8595"/>
<path d="M157.624 173.861H111.306C109.898 173.861 108.757 172.72 108.757 171.312C108.757 169.904 109.898 168.763 111.306 168.763H157.624C159.031 168.763 160.173 169.904 160.173 171.312C160.173 172.72 159.032 173.861 157.624 173.861Z" fill="#FA8595"/>
<path d="M129.453 72.2607C129.453 74.4232 128.575 76.3858 127.16 77.8066C125.739 79.2218 123.782 80.1003 121.619 80.1003H111.317L102.391 83.8319L105.387 79.5642C102.471 78.4233 100.406 75.5817 100.406 72.2612C100.406 70.0987 101.284 68.1418 102.7 66.7209C104.12 65.3058 106.077 64.4272 108.246 64.4272H121.619C125.944 64.4267 129.453 67.9357 129.453 72.2607Z" fill="#FA8595"/>
<path d="M110.821 70.6309H107.322V74.1295H110.821V70.6309Z" fill="white"/>
<path d="M117.196 70.6309H113.698V74.1295H117.196V70.6309Z" fill="white"/>
<path d="M123.753 70.6309H120.255V74.1295H123.753V70.6309Z" fill="white"/>
<path d="M179.239 72.2607C179.239 74.4232 178.361 76.3858 176.946 77.8066C175.525 79.2218 173.568 80.1003 171.405 80.1003H161.103L152.177 83.8319L155.173 79.5642C152.257 78.4233 150.192 75.5817 150.192 72.2612C150.192 70.0987 151.071 68.1418 152.486 66.7209C153.907 65.3058 155.863 64.4272 158.032 64.4272H171.406C175.73 64.4267 179.239 67.9357 179.239 72.2607Z" fill="#FA8595"/>
<path d="M160.439 70.6309H156.94V74.1295H160.439V70.6309Z" fill="white"/>
<path d="M166.814 70.6309H163.316V74.1295H166.814V70.6309Z" fill="white"/>
<path d="M173.371 70.6309H169.873V74.1295H173.371V70.6309Z" fill="white"/>
</g>
<defs>
<clipPath id="clip0_53367_7425">
<rect width="350" height="233.333" fill="white" transform="translate(0 0.333252)"/>
</clipPath>
</defs>
</svg>
