<svg width="275" height="276" viewBox="0 0 275 276" fill="none" xmlns="http://www.w3.org/2000/svg">
<g clip-path="url(#clip0_53366_25103)">
<path d="M275 0.5H138.073L7.32178 138H137.259L137.867 137.381L275 0.5Z" fill="url(#paint0_linear_53366_25103)"/>
<path d="M137.867 137.381L137.259 138H138.485L137.867 137.381Z" fill="url(#paint1_linear_53366_25103)"/>
<path d="M138.073 0.5H0V145.7V138H7.32188L138.073 0.5Z" fill="url(#paint2_linear_53366_25103)"/>
<path d="M137.259 138H7.32187L0 145.7V275.5L137.259 138Z" fill="url(#paint3_linear_53366_25103)"/>
<path d="M138.485 138H137.259L0 275.5H275L138.485 138Z" fill="url(#paint4_linear_53366_25103)"/>
<path d="M7.32188 138H0V145.7L7.32188 138Z" fill="url(#paint5_linear_53366_25103)"/>
</g>
<defs>
<linearGradient id="paint0_linear_53366_25103" x1="-49.082" y1="251.812" x2="206.82" y2="-4.08977" gradientUnits="userSpaceOnUse">
<stop stop-color="#C757BC"/>
<stop offset="0.108" stop-color="#C757BC"/>
<stop offset="0.173" stop-color="#CD5CA9"/>
<stop offset="0.492" stop-color="#E8744F"/>
<stop offset="0.716" stop-color="#F88316"/>
<stop offset="0.823" stop-color="#FF8900"/>
<stop offset="1" stop-color="#FF8900"/>
</linearGradient>
<linearGradient id="paint1_linear_53366_25103" x1="88.8357" y1="325.036" x2="213.567" y2="200.305" gradientUnits="userSpaceOnUse">
<stop stop-color="#00AFFF"/>
<stop offset="0.296" stop-color="#00AFFF"/>
<stop offset="0.694" stop-color="#5282FF"/>
<stop offset="1" stop-color="#945DFF"/>
</linearGradient>
<linearGradient id="paint2_linear_53366_25103" x1="-2.90031" y1="76.4996" x2="84.6001" y2="-11.0031" gradientUnits="userSpaceOnUse">
<stop stop-color="#00AFFF"/>
<stop offset="0.296" stop-color="#00AFFF"/>
<stop offset="0.694" stop-color="#5282FF"/>
<stop offset="1" stop-color="#945DFF"/>
</linearGradient>
<linearGradient id="paint3_linear_53366_25103" x1="-47.5465" y1="253.348" x2="208.355" y2="-2.55436" gradientUnits="userSpaceOnUse">
<stop stop-color="#AD4CA4"/>
<stop offset="0.108" stop-color="#AD4CA4"/>
<stop offset="0.173" stop-color="#B25093"/>
<stop offset="0.492" stop-color="#CA6545"/>
<stop offset="0.716" stop-color="#D87213"/>
<stop offset="0.823" stop-color="#DE7700"/>
<stop offset="1" stop-color="#DE7700"/>
</linearGradient>
<linearGradient id="paint4_linear_53366_25103" x1="88.8357" y1="325.036" x2="213.567" y2="200.305" gradientUnits="userSpaceOnUse">
<stop stop-color="#0098DE"/>
<stop offset="0.296" stop-color="#0098DE"/>
<stop offset="0.694" stop-color="#4771DE"/>
<stop offset="1" stop-color="#8151DE"/>
</linearGradient>
<linearGradient id="paint5_linear_53366_25103" x1="31.4883" y1="110.887" x2="118.989" y2="23.3845" gradientUnits="userSpaceOnUse">
<stop stop-color="#0098DE"/>
<stop offset="0.296" stop-color="#0098DE"/>
<stop offset="0.694" stop-color="#4771DE"/>
<stop offset="1" stop-color="#8151DE"/>
</linearGradient>
<clipPath id="clip0_53366_25103">
<rect width="275" height="275" fill="white" transform="translate(0 0.5)"/>
</clipPath>
</defs>
</svg>
