<svg width="275" height="275" viewBox="0 0 275 275" fill="none" xmlns="http://www.w3.org/2000/svg">
<path d="M84.8827 38.4088L51.0144 72.2779L9.08205 115.822C-2.20741 128.724 -3.82051 149.69 9.08198 162.593L91.3338 243.233C107.462 257.748 136.492 251.296 136.492 230.33V44.1036C136.492 25.5064 107.462 15.8302 84.8827 38.4088Z" fill="#1E4450"/>
<path d="M142.942 244.844C131.652 233.753 90.8117 192.711 88.1107 190.01L88.1052 190.004C85.4089 187.308 84.8818 186.781 84.8818 181.946V93.2431C84.8818 89.0331 84.8818 88.4047 88.1107 85.1792C98.8839 74.4053 133.45 39.8374 142.942 30.3449C154.233 19.0534 168.743 20.6649 178.423 30.3448C186.898 38.8197 241.108 93.0296 260.968 112.89L267.126 119.048C276.803 128.724 278.415 145.007 267.126 156.141C237.332 185.526 184.996 238.479 178.423 244.844C168.746 254.215 154.231 255.936 142.942 244.844Z" fill="#0179F2"/>
<path d="M171.133 40.7945C162.229 31.891 160.683 31.9574 160.683 41.6343L160.683 59.528C160.683 107.279 160.683 232.295 160.683 236.78C160.683 244.397 162.879 244.261 170.359 236.78C177.84 229.299 254.224 151.205 260.675 144.852C267.126 138.499 267.126 136.788 260.675 130.337L171.133 40.7945Z" fill="#1885F3"/>
</svg>
