<svg width="275" height="275" viewBox="0 0 275 275" fill="none" xmlns="http://www.w3.org/2000/svg">
<path fill-rule="evenodd" clip-rule="evenodd" d="M133.145 241.408C132.887 241.78 132.616 242.141 132.332 242.492L133.145 241.408ZM127.47 28.9309L128.849 29.8352C128.405 29.519 127.945 29.2173 127.47 28.9309ZM128.849 29.8352C129.3 30.1566 129.735 30.493 130.152 30.8438L128.849 29.8352ZM132.645 33.3624L131.6 32.1899C131.967 32.5678 132.315 32.9589 132.645 33.3624ZM132.645 33.3624C133.044 33.8498 133.415 34.3554 133.757 34.8781L132.645 33.3624ZM135.315 37.8742L134.527 36.1779C134.821 36.7274 135.084 37.2932 135.315 37.8742ZM136.288 41.4483L135.914 39.6779C136.07 40.2557 136.195 40.8462 136.288 41.4483ZM136.296 233.245L136.46 231.518C136.428 232.106 136.373 232.682 136.296 233.245ZM135.819 235.625L136.079 234.52C136.002 234.894 135.916 235.263 135.819 235.625ZM134.979 238.08L135.428 236.908C135.291 237.306 135.141 237.697 134.979 238.08ZM133.757 240.468L134.417 239.285C134.211 239.689 133.99 240.083 133.757 240.468Z" fill="#1E4450"/>
<path d="M84.8826 38.4089L51.0144 72.2779L9.08207 115.822C-2.20738 128.724 -3.82047 149.69 9.082 162.593L91.3337 243.232C100.622 251.592 114.19 252.997 124.027 248.681C124.456 248.493 124.878 248.293 125.292 248.084L126.372 247.502C126.663 247.335 126.95 247.163 127.232 246.985L128.308 246.262C128.646 246.02 128.977 245.77 129.299 245.51L130.538 244.43C130.875 244.111 131.201 243.782 131.514 243.441L132.332 242.492L133.145 241.408C133.358 241.102 133.562 240.788 133.757 240.468L134.417 239.285C134.618 238.893 134.805 238.491 134.979 238.08L135.428 236.908C135.572 236.489 135.703 236.061 135.819 235.625L136.079 234.52C136.164 234.102 136.237 233.677 136.296 233.245L136.46 231.518C136.481 231.127 136.492 230.731 136.492 230.33V44.1036C136.492 43.1964 136.423 42.3104 136.288 41.4483L135.914 39.6779C135.748 39.0619 135.548 38.4603 135.315 37.8742L134.527 36.1779C134.29 35.7338 134.033 35.3004 133.757 34.8781L132.645 33.3624L131.6 32.1899C131.144 31.7206 130.661 31.2715 130.152 30.8438L128.849 29.8352L127.47 28.9309C117.102 22.676 99.6184 23.6733 84.8826 38.4089Z" fill="#1E4450"/>
<path d="M136.492 230.33V44.1036C136.492 43.1964 136.423 42.3104 136.288 41.4483L135.914 39.6779C135.748 39.062 135.548 38.4603 135.315 37.8742L134.527 36.1779C134.29 35.7338 134.033 35.3004 133.757 34.8781L132.645 33.3624L131.6 32.1899C131.144 31.7206 130.661 31.2715 130.152 30.8438L128.849 29.8353L127.47 28.9309L74.527 77.381C71.2981 80.6066 70.2067 83.6053 70.2067 87.8153V185.565C70.2067 190.4 72.4815 194.75 75.1777 197.446L126.372 247.502C126.663 247.335 126.95 247.163 127.232 246.985L128.308 246.262C128.646 246.02 128.977 245.77 129.299 245.51L130.538 244.43C130.875 244.111 131.201 243.782 131.514 243.441L132.332 242.492L133.145 241.408C133.358 241.102 133.562 240.788 133.757 240.468L134.417 239.285C134.618 238.893 134.805 238.491 134.979 238.08L135.428 236.908C135.572 236.489 135.703 236.061 135.819 235.625L136.079 234.52C136.164 234.102 136.237 233.677 136.296 233.245L136.46 231.518C136.481 231.127 136.492 230.731 136.492 230.33Z" fill="#1D414D"/>
<path d="M142.942 244.844C131.652 233.753 90.8117 192.711 88.1107 190.01L88.1051 190.004C85.4089 187.308 84.8818 186.781 84.8818 181.946V93.243C84.8818 89.0331 84.8818 88.4047 88.1107 85.1791C98.8839 74.4052 133.449 39.8373 142.942 30.3448C154.233 19.0534 168.743 20.6649 178.423 30.3448C186.913 38.8345 241.298 93.2195 261.072 112.993L267.126 119.047C276.802 128.724 278.415 145.007 267.126 156.141C237.332 185.526 184.996 238.479 178.423 244.844C168.746 254.215 154.231 255.935 142.942 244.844Z" fill="#0179F2"/>
<path d="M171.132 40.7945C162.229 31.8911 160.682 31.9574 160.682 41.6343L160.682 59.528C160.682 107.279 160.682 232.295 160.682 236.78C160.682 244.397 162.878 244.261 170.359 236.78C177.84 229.299 254.223 151.205 260.674 144.852C267.126 138.499 267.126 136.788 260.674 130.337L171.132 40.7945Z" fill="#1885F3"/>
</svg>
